<?xml version="1.0" encoding="UTF-8"?>
<svg version="1.1" xmlns="http://www.w3.org/2000/svg" width="500" height="500">
<path d="M0 0 C2.468281 2.468281 2.33958623 3.45296149 2.59765625 6.8671875 C2.67693359 7.83527344 2.75621094 8.80335938 2.83789062 9.80078125 C2.91201172 10.81527344 2.98613281 11.82976562 3.0625 12.875 C3.21724485 14.87261528 3.37469353 16.87002339 3.53515625 18.8671875 C3.63389038 20.19919189 3.63389038 20.19919189 3.73461914 21.55810547 C3.93295437 23.93122066 3.93295437 23.93122066 4.49560547 25.91357422 C5.18652624 28.771565 5.33521182 31.58310666 5.53515625 34.515625 C5.62216797 35.76601563 5.70917969 37.01640625 5.79882812 38.3046875 C5.88583984 39.60664063 5.97285156 40.90859375 6.0625 42.25 C6.15396895 43.58075175 6.24576229 44.91148124 6.33789062 46.2421875 C6.56178768 49.49458677 6.7823637 52.74717678 7 56 C-2.72326831 57.14718973 -12.39610069 58.19366906 -22.1796875 58.65625 C-32.58608235 59.59261273 -42.06695644 62.05627893 -51.9375 65.4375 C-53.12923828 65.83259766 -54.32097656 66.22769531 -55.54882812 66.63476562 C-61.82047044 68.6824297 -61.82047044 68.6824297 -67.68579102 71.63696289 C-70 73 -70 73 -73 73 C-73 73.66 -73 74.32 -73 75 C-75.97 75.99 -75.97 75.99 -79 77 C-79 77.66 -79 78.32 -79 79 C-81.96187272 81.17204 -84.50685991 82.83561997 -88 84 C-88 84.66 -88 85.32 -88 86 C-88.66 86 -89.32 86 -90 86 C-90 86.66 -90 87.32 -90 88 C-90.66 88 -91.32 88 -92 88 C-92 88.66 -92 89.32 -92 90 C-92.66 90 -93.32 90 -94 90 C-93.40391236 80.61161974 -90.5523495 73.61465075 -85 66 C-84.56558594 65.34644531 -84.13117188 64.69289063 -83.68359375 64.01953125 C-73.43402433 49.50572993 -56.87355503 40.63609537 -40.59643555 34.63720703 C-34.8835446 32.48399427 -30.08615486 29.8864242 -25.06640625 26.3828125 C-23 25 -23 25 -20 24 C-20 23.34 -20 22.68 -20 22 C-19.34 22 -18.68 22 -18 22 C-17.73058594 21.44054687 -17.46117187 20.88109375 -17.18359375 20.3046875 C-15.44534808 16.91998472 -13.426587 13.7183918 -11.4375 10.4765625 C-9.86474554 7.89607046 -9.86474554 7.89607046 -8.5625 4.5 C-7 2 -7 2 -3.3125 0.625 C-2.219375 0.41875 -1.12625 0.2125 0 0 Z "  fill="#242424" transform="translate(346,280)"/>
<path d="M0 0 C6.77587891 -0.14697266 6.77587891 -0.14697266 8.79296875 1.17578125 C10.28158015 3.42555965 11.287888 5.69110855 12.3125 8.1875 C16.25434072 17.12155218 21.55524347 24.37441741 30.515625 28.6953125 C31.74796875 29.16710937 32.9803125 29.63890625 34.25 30.125 C34.90967773 30.381604 35.56935547 30.63820801 36.24902344 30.90258789 C39.87464378 32.28940094 43.49677987 33.45709154 47.25 34.4375 C53.21844843 36.1455757 57.94672142 39.47900589 63 43 C63.61085449 43.41830078 64.22170898 43.83660156 64.85107422 44.26757812 C66.80363786 45.60597794 68.74714916 46.95646494 70.6875 48.3125 C71.31237305 48.74506104 71.93724609 49.17762207 72.58105469 49.62329102 C74.09165406 50.69784763 75.55139272 51.84322893 77 53 C77 53.66 77 54.32 77 55 C77.66 55 78.32 55 79 55 C79 55.66 79 56.32 79 57 C79.66 57 80.32 57 81 57 C89.57001235 66.51649966 89.57001235 66.51649966 89.5 72.1875 C89.335 73.115625 89.17 74.04375 89 75 C89.66 75 90.32 75 91 75 C91 76.65 91 78.3 91 80 C88.03 79.34 85.06 78.68 82 78 C82 77.34 82 76.68 82 76 C80.90945312 75.59007812 80.90945312 75.59007812 79.796875 75.171875 C77.11126802 74.04662068 74.75220937 72.73220046 72.25 71.25 C60.32433779 64.69409161 47.3678109 61.15559828 34 59 C32.9275 58.82082031 31.855 58.64164062 30.75 58.45703125 C25.8788619 57.86336129 21.02651742 57.67956712 16.125 57.5 C9.3677394 57.25041582 2.71311237 56.8270775 -4 56 C-4.02730665 53.49992418 -4.04698485 51.0001551 -4.0625 48.5 C-4.07087891 47.80390625 -4.07925781 47.1078125 -4.08789062 46.390625 C-4.09111328 45.69453125 -4.09433594 44.9984375 -4.09765625 44.28125 C-4.10289307 43.65283203 -4.10812988 43.02441406 -4.11352539 42.37695312 C-3.98091857 39.60048009 -3.62583697 36.86839255 -3.26612854 34.11340332 C-2.85166704 30.82204531 -2.55241698 27.52171351 -2.24609375 24.21875 C-2.14833397 23.17031921 -2.14833397 23.17031921 -2.04859924 22.10070801 C-1.84372008 19.90057971 -1.64057817 17.70029519 -1.4375 15.5 C-1.29764168 13.99478092 -1.15766872 12.48957248 -1.01757812 10.984375 C-0.67706231 7.3230386 -0.33810271 3.66156012 0 0 Z "  fill="#242424" transform="translate(153,281)"/>
<path d="M0 0 C-0.71652932 9.05513931 -2.33918653 17.89537416 -4 26.8125 C-4.27640295 28.31438668 -4.5524471 29.81633944 -4.828125 31.31835938 C-6.90286647 42.59390041 -6.90286647 42.59390041 -8 48 C-7.32195312 48.04898438 -6.64390625 48.09796875 -5.9453125 48.1484375 C-5.01460937 48.22320312 -4.08390625 48.29796875 -3.125 48.375 C-2.22007813 48.44460938 -1.31515625 48.51421875 -0.3828125 48.5859375 C3.20936273 49.02562639 6.69142573 49.71795492 10.23388672 50.44726562 C23.24849531 53.04788997 36.30254148 55.08424703 49.5625 55.66015625 C55.70900089 56.03915115 61.78907147 57.02873774 67.875 57.9375 C69.01694824 58.10765625 70.15889648 58.2778125 71.33544922 58.453125 C77.92986694 59.46217008 84.47302165 60.61982565 91 62 C91 62.66 91 63.32 91 64 C91.99 64 92.98 64 94 64 C94.495 67.465 94.495 67.465 95 71 C55.73 71 16.46 71 -24 71 C-24 62.01015658 -24 62.01015658 -23.01171875 57.8203125 C-22.69630127 56.44057251 -22.69630127 56.44057251 -22.37451172 55.03295898 C-22.14779785 54.07333252 -21.92108398 53.11370605 -21.6875 52.125 C-20.04836653 44.91937848 -18.52755601 37.73755351 -17.375 30.4375 C-14.13294863 10.03618793 -14.13294863 10.03618793 -11 2 C-7.39695966 -0.20185798 -4.15102688 -0.19307102 0 0 Z "  fill="#242424" transform="translate(122,309)"/>
<path d="M0 0 C7.88416316 0.90971113 7.88416316 0.90971113 11 3 C11.94140625 5.0390625 11.94140625 5.0390625 12.5625 7.625 C12.92408203 9.12353516 12.92408203 9.12353516 13.29296875 10.65234375 C14.17159497 14.81246898 14.97690324 18.98274009 15.73242188 23.16699219 C17.08013974 30.60708595 18.64216802 38.00042124 20.19873047 45.39916992 C20.60628853 47.33692324 21.01161042 49.2751484 21.41455078 51.21386719 C21.79716212 53.03470148 22.19090987 54.85324068 22.59716797 56.66894531 C22.78037598 57.51295898 22.96358398 58.35697266 23.15234375 59.2265625 C23.31597412 59.95697754 23.47960449 60.68739258 23.64819336 61.43994141 C24.12768117 64.92912196 24 68.47802761 24 72 C-16.59 72 -57.18 72 -99 72 C-98.67 71.01 -98.34 70.02 -98 69 C-99.485 69.495 -99.485 69.495 -101 70 C-101 69.34 -101 68.68 -101 68 C-100.01 68 -99.02 68 -98 68 C-98 67.34 -98 66.68 -98 66 C-89.54453578 63.53864164 -81.02414561 61.64234781 -72.375 60 C-71.69135376 59.86927094 -71.00770752 59.73854187 -70.30334473 59.60385132 C-57.42754193 57.17308639 -44.5742962 55.85967354 -31.52426147 54.81037903 C-24.47400017 54.24196851 -17.49160608 53.51100902 -10.5 52.4375 C-9.7481543 52.32253174 -8.99630859 52.20756348 -8.22167969 52.08911133 C-3.1007939 51.26363582 1.94782319 50.17071641 7 49 C6.21205686 38.99611426 4.32053563 29.21036372 2.50854492 19.35424805 C2.09456811 17.0948726 1.68579608 14.83459835 1.27734375 12.57421875 C1.14923813 11.88768723 1.02113251 11.2011557 0.8891449 10.49382019 C0.25006781 6.95091338 -0.14184771 3.60084956 0 0 Z "  fill="#242424" transform="translate(378,308)"/>
<path d="M0 0 C-0.70941414 10.19899512 -1.68916175 20.36374433 -2.72949219 30.53344727 C-3.00336106 33.22047658 -3.27124815 35.90806441 -3.5390625 38.59570312 C-3.71317795 40.30732871 -3.8876438 42.01891868 -4.0625 43.73046875 C-4.14169678 44.53244186 -4.22089355 45.33441498 -4.30249023 46.16069031 C-4.88565392 51.77130784 -4.88565392 51.77130784 -6 54 C-4.83150513 54.029729 -4.83150513 54.029729 -3.6394043 54.06005859 C50.50724171 55.50354382 50.50724171 55.50354382 74 67 C74.763125 67.350625 75.52625 67.70125 76.3125 68.0625 C80.57963583 70.19606791 82.43690516 72.50610234 84 77 C83.67 77.66 83.34 78.32 83 79 C82.48695313 78.80664062 81.97390625 78.61328125 81.4453125 78.4140625 C75.19007743 76.28686135 68.98787565 75.41902692 62.44628906 74.7722168 C56.22838349 74.155885 50.0592819 73.32699804 43.875 72.4375 C37.65526961 71.55452422 31.5262803 70.83997766 25.25 70.5625 C18.00844138 70.1959335 10.91640565 69.21674921 3.75 68.125 C2.67266602 67.96330322 1.59533203 67.80160645 0.48535156 67.63500977 C-18.26218766 64.68220056 -18.26218766 64.68220056 -25 61 C-22.44916611 46.09853695 -19.87904903 31.20037901 -17.25 16.3125 C-17.03964111 15.10819336 -16.82928223 13.90388672 -16.61254883 12.66308594 C-16.41556396 11.55352539 -16.2185791 10.44396484 -16.015625 9.30078125 C-15.84321289 8.32278564 -15.67080078 7.34479004 -15.49316406 6.3371582 C-15 4 -15 4 -14 2 C-11.85546875 1.3671875 -11.85546875 1.3671875 -9.1875 0.875 C-8.31480469 0.70742188 -7.44210938 0.53984375 -6.54296875 0.3671875 C-4 0 -4 0 0 0 Z "  fill="#242424" transform="translate(146,289)"/>
<path d="M0 0 C3.96 0.66 7.92 1.32 12 2 C13.44345395 7.50600638 14.57816168 12.96688562 15.47265625 18.5859375 C15.6646183 19.76042953 15.6646183 19.76042953 15.86045837 20.95864868 C16.26432724 23.43026006 16.66393992 25.90252738 17.0625 28.375 C17.59134196 31.65426268 18.12444543 34.93279081 18.66015625 38.2109375 C18.77996353 38.96297455 18.89977081 39.7150116 19.02320862 40.48983765 C19.62051611 44.36171666 19.62051611 44.36171666 21 48 C21.25809205 50.52643441 21.46509963 53.02996036 21.625 55.5625 C21.6765625 56.26052734 21.728125 56.95855469 21.78125 57.67773438 C21.89810559 59.44947131 21.95389642 61.22501227 22 63 C17.16112003 67.83887997 0.94159968 66.71209925 -5.75 67.3125 C-26.38912927 69.28042303 -47.15695304 71.87031699 -67.32666016 76.75268555 C-73.51417024 78.22219995 -79.65603879 78.77583176 -86 79 C-84.22742839 73.68228517 -80.03906395 70.63135901 -75.1953125 68.03125 C-49.33779748 55.88465931 -23.9357341 54.43294528 4 54 C3.86215088 53.02160156 3.72430176 52.04320312 3.58227539 51.03515625 C2.61142025 44.03162897 1.72338458 37.07041388 1.4375 30 C1.26638556 26.13354176 1.04922195 22.32949319 0.4765625 18.49609375 C-0.04863102 14.64323968 -0.09689514 10.94915138 -0.0625 7.0625 C-0.05798828 6.37865234 -0.05347656 5.69480469 -0.04882812 4.99023438 C-0.0371956 3.32678396 -0.01926694 1.6633795 0 0 Z "  fill="#242424" transform="translate(356,289)"/>
<path d="M0 0 C-0.99 0 -1.98 0 -3 0 C-2.01 0.33 -1.02 0.66 0 1 C-0.33 1.78375 -0.66 2.5675 -1 3.375 C-2.11866511 5.84332497 -2.11866511 5.84332497 -2 8 C-3.32 7.67 -4.64 7.34 -6 7 C-6 7.99 -6 8.98 -6 10 C-6.66 10 -7.32 10 -8 10 C-8.226875 10.61875 -8.45375 11.2375 -8.6875 11.875 C-10.42844482 14.69367256 -11.88664461 14.95202624 -15 16 C-27.80070925 18.82522466 -37.90099414 18.02305298 -50 13 C-50 12.34 -50 11.68 -50 11 C-50.66 11 -51.32 11 -52 11 C-52.93065133 8.39417629 -53.14917407 7.35801776 -52.0625 4.75 C-51.5365625 3.88375 -51.5365625 3.88375 -51 3 C-50.01 3 -49.02 3 -48 3 C-48 3.66 -48 4.32 -48 5 C-46.783125 4.95875 -45.56625 4.9175 -44.3125 4.875 C-41.63864743 4.86566718 -40.11865988 4.95003794 -37.625 6 C-28.3952097 9.51611059 -19.72775369 5.45705327 -11.22265625 1.80859375 C-10.34480469 1.43863281 -9.46695313 1.06867188 -8.5625 0.6875 C-7.78003906 0.34074219 -6.99757813 -0.00601562 -6.19140625 -0.36328125 C-3.70272216 -1.08637485 -2.41328644 -0.85207152 0 0 Z "  fill="#242424" transform="translate(280,376)"/>
<path d="M0 0 C0.33 0.99 0.66 1.98 1 3 C0.38377274 2.99962297 -0.23245453 2.99924595 -0.86735535 2.9988575 C-15.88337876 2.99173063 -30.89895171 3.01772532 -45.91482544 3.0802784 C-53.17652883 3.10973609 -60.43794031 3.12811219 -67.69970703 3.12011719 C-74.03142718 3.11317457 -80.36269529 3.12731308 -86.69430447 3.16643608 C-90.0450803 3.18641302 -93.39454574 3.19291065 -96.74545288 3.18042374 C-100.49246656 3.16825149 -104.23753176 3.19333687 -107.984375 3.22705078 C-109.08705215 3.21482986 -110.18972931 3.20260895 -111.32582092 3.1900177 C-117.7738333 3.29441634 -121.47082144 4.21023015 -126.28179932 8.61701775 C-128.18362756 10.14780209 -129.61810788 10.58332446 -132 11 C-131.34 9.68 -130.68 8.36 -130 7 C-129.34 7.33 -128.68 7.66 -128 8 C-128 7.01 -128 6.02 -128 5 C-126.68 5.33 -125.36 5.66 -124 6 C-124.33 5.01 -124.66 4.02 -125 3 C-124 2 -124 2 -121.94039822 1.87695217 C-121.02690137 1.87787396 -120.11340452 1.87879576 -119.17222595 1.87974548 C-118.12749619 1.87837082 -117.08276642 1.87699615 -116.00637817 1.87557983 C-114.85048187 1.87917511 -113.69458557 1.88277039 -112.50366211 1.88647461 C-111.29407333 1.88632858 -110.08448456 1.88618256 -108.83824158 1.8860321 C-105.51193649 1.88661107 -102.18569281 1.89164027 -98.8593986 1.89860606 C-95.38670071 1.90484022 -91.91400207 1.90544345 -88.44129944 1.90663147 C-81.86103807 1.9097446 -75.28079324 1.91795775 -68.70053917 1.92798096 C-61.21093888 1.93914266 -53.72133782 1.94465269 -46.2317313 1.94967639 C-30.82114461 1.96014038 -15.41057443 1.97773947 0 2 C0 1.34 0 0.68 0 0 Z "  fill="#242424" transform="translate(402,378)"/>
<path d="M0 0 C5.78220241 0.52155723 10.53668832 1.6934718 15.875 3.9375 C16.86886719 4.33485352 16.86886719 4.33485352 17.8828125 4.74023438 C20.71237938 5.89909154 22.81724441 6.81724441 25 9 C23.02 9 21.04 9 19 9 C19 8.34 19 7.68 19 7 C18.01 7 17.02 7 16 7 C15.67 9.64 15.34 12.28 15 15 C15.66 15.33 16.32 15.66 17 16 C11.93294055 15.53935823 8.90532533 12.97063847 5 10 C4.01 9.34 3.02 8.68 2 8 C2.66 8 3.32 8 4 8 C3.67 5.69 3.34 3.38 3 1 C2.01 0.67 1.02 0.34 0 0 Z "  fill="#242424" transform="translate(213,372)"/>
<path d="M0 0 C58.41 0.495 58.41 0.495 118 1 C118 1.33 118 1.66 118 2 C79.06 2 40.12 2 0 2 C0 1.34 0 0.68 0 0 Z "  fill="#242424" transform="translate(97,379)"/>
<path d="M0 0 C4.84146109 1.46710942 8.55948972 4.3512744 12 8 C12 8.66 12 9.32 12 10 C12.66 10 13.32 10 14 10 C14.33 11.32 14.66 12.64 15 14 C9.75352101 12.31045592 4.62322943 10.47234318 -0.5 8.4375 C-5.64453172 6.43046765 -10.57674015 5.01111624 -16 4 C-16 3.67 -16 3.34 -16 3 C-9.09647445 2.48862774 -4.25172386 4.13035626 2 7 C1.34414811 3.39007621 1.34414811 3.39007621 0 0 Z "  fill="#242424" transform="translate(227,361)"/>
<path d="M0 0 C2.29108615 2.84252236 3.82632887 5.55282544 5.1875 8.9375 C5.53167969 9.77152344 5.87585938 10.60554688 6.23046875 11.46484375 C7.0345012 14.11366132 7.1427234 16.24888334 7 19 C3.54798361 17.52278578 1.35038064 15.56205999 -1.25 12.875 C-1.95640625 12.15054687 -2.6628125 11.42609375 -3.390625 10.6796875 C-3.92171875 10.12539063 -4.4528125 9.57109375 -5 9 C-1.25 7.875 -1.25 7.875 1 9 C1.33 7.68 1.66 6.36 2 5 C1.34 5 0.68 5 0 5 C0 3.35 0 1.7 0 0 Z "  fill="#242424" transform="translate(242,351)"/>
<path d="M0 0 C-1 3 -1 3 -3 5 C1.455 4.505 1.455 4.505 6 4 C3.18478634 5.87680911 0.85279454 6.87923181 -2.3125 8 C-3.28445313 8.34546875 -4.25640625 8.6909375 -5.2578125 9.046875 C-8.16375728 10.05691849 -11.07353682 11.05087681 -14 12 C-12.56394807 8.61181498 -10.79533421 6.6813402 -8 4.3125 C-7.29875 3.71050781 -6.5975 3.10851562 -5.875 2.48828125 C-3.78952321 0.83293405 -2.68454235 0 0 0 Z "  fill="#242424" transform="translate(273,363)"/>
<path d="M0 0 C1.65 0 3.3 0 5 0 C5.25 2.6875 5.25 2.6875 5 6 C4.34 6.763125 3.68 7.52625 3 8.3125 C0.11257167 12.19248182 0.48349079 15.31452359 1 20 C1.44971405 22.633495 1.96722554 25.23161172 2.5625 27.8359375 C3 30 3 30 3 33 C2.01 33 1.02 33 0 33 C1.32 33.99 2.64 34.98 4 36 C3.67 37.32 3.34 38.64 3 40 C1.68 39.01 0.36 38.02 -1 37 C-1.03534974 40.58509047 -0.9935115 44.16526427 -0.9375 47.75 C-0.94845703 48.76578125 -0.95941406 49.7815625 -0.97070312 50.828125 C-0.90448096 53.70405908 -0.75563509 56.22256142 0 59 C2.80495288 61.26800502 2.80495288 61.26800502 5.03735352 62.11230469 C8.58270931 63.71585161 11.15753732 66.5817465 13.9375 69.25 C14.52595703 69.80429687 15.11441406 70.35859375 15.72070312 70.9296875 C17.15289733 72.28037471 18.57728675 73.63932988 20 75 C19.01 75.99 19.01 75.99 18 77 C18 76.34 18 75.68 18 75 C14.1588382 74.29448049 11.1345263 73.97982106 7.25 74.5625 C4 75 4 75 1 73 C0.67 90.16 0.34 107.32 0 125 C2.475 124.505 2.475 124.505 5 124 C5 124.66 5 125.32 5 126 C4.34 126 3.68 126 3 126 C2.690625 126.94875 2.38125 127.8975 2.0625 128.875 C1 132 1 132 0 134 C0.721875 133.71125 1.44375 133.4225 2.1875 133.125 C4.79166667 132.08333333 7.39583333 131.04166667 10 130 C6.72773556 133.38133992 3.32601562 136.6137516 -0.125 139.8125 C-0.97320312 140.60269531 -1.82140625 141.39289063 -2.6953125 142.20703125 C-5 144 -5 144 -8 144 C-8 99.12 -8 54.24 -8 8 C-8.66 8 -9.32 8 -10 8 C-10 6.02 -10 4.04 -10 2 C-8.68 2 -7.36 2 -6 2 C-6 2.99 -6 3.98 -6 5 C-4.35 5 -2.7 5 -1 5 C-0.67 3.35 -0.34 1.7 0 0 Z "  fill="#58A6FF" transform="translate(265,192)"/>
<path d="M0 0 C0.66 0 1.32 0 2 0 C2 3.3 2 6.6 2 10 C-0.31 10.66 -2.62 11.32 -5 12 C-5.144375 12.763125 -5.28875 13.52625 -5.4375 14.3125 C-6 17 -6 17 -7 20 C-7.09267588 21.70632648 -7.12998202 23.41616587 -7.125 25.125 C-7.12757813 26.01445312 -7.13015625 26.90390625 -7.1328125 27.8203125 C-7.24301985 29.97791088 -7.24301985 29.97791088 -6 31 C-5.79016721 33.14204311 -5.63176615 35.28924113 -5.5 37.4375 C-5.35852674 41.87784331 -5.35852674 41.87784331 -4 46 C0.62 46 5.24 46 10 46 C10.66 44.68 11.32 43.36 12 42 C13.33333333 40.66666667 14.66666667 39.33333333 16 38 C16.53625 37.0925 17.0725 36.185 17.625 35.25 C18.07875 34.5075 18.5325 33.765 19 33 C19.66 33 20.32 33 21 33 C21 32.34 21 31.68 21 31 C22.32 30.67 23.64 30.34 25 30 C25 31.98 25 33.96 25 36 C24.34 36 23.68 36 23 36 C22.86851562 36.5775 22.73703125 37.155 22.6015625 37.75 C21.83422392 40.6200456 20.68570037 43.27028171 19.5234375 46 C18.87155933 48.4907584 19.00690871 49.6240059 20 52 C20.99700928 52.77585449 20.99700928 52.77585449 22.01416016 53.56738281 C24.95442306 57.16915065 24.60269831 60.39825333 24.609375 64.921875 C24.62591125 65.78186096 24.64244751 66.64184692 24.65948486 67.52789307 C24.70798368 70.26866788 24.72933956 73.0088878 24.75 75.75 C24.77815817 77.61070503 24.80808539 79.47138419 24.83984375 81.33203125 C24.91374297 85.88797515 24.96330595 90.44361067 25 95 C25.99 95.495 25.99 95.495 27 96 C26.67 98.64 26.34 101.28 26 104 C27.65 104.66 29.3 105.32 31 106 C29 107 29 107 26.375 106.125 C24.704375 105.568125 24.704375 105.568125 23 105 C20.36 104.67 17.72 104.34 15 104 C14.67 88.16 14.34 72.32 14 56 C6.74 56 -0.52 56 -8 56 C-8 56.66 -8 57.32 -8 58 C-9.65 57.67 -11.3 57.34 -13 57 C-12.96519531 55.91332031 -12.96519531 55.91332031 -12.9296875 54.8046875 C-12.82981206 49.45421756 -12.83544252 45.00553918 -15 40 C-15.33 40 -15.66 40 -16 40 C-16.08816905 36.35432287 -16.14077948 32.70892526 -16.1875 29.0625 C-16.21263672 28.04091797 -16.23777344 27.01933594 -16.26367188 25.96679688 C-16.32659512 19.40180496 -15.5512675 14.0660915 -13 8 C-12.67 8.66 -12.34 9.32 -12 10 C-6.77998876 9.71667051 -6.77998876 9.71667051 -2.0625 7.8125 C-0.5847343 5.29160556 -0.31972654 2.8775389 0 0 Z "  fill="#58A6FF" transform="translate(269,114)"/>
<path d="M0 0 C1.89977088 1.89977088 1.12012643 4.68939065 1.12442017 7.21670532 C1.12082489 8.11078094 1.11722961 9.00485657 1.11352539 9.92602539 C1.11367142 10.86251419 1.11381744 11.79900299 1.1139679 12.76387024 C1.11326837 15.87515539 1.10547415 18.98638149 1.09765625 22.09765625 C1.09579221 24.24857043 1.09436824 26.39948503 1.09336853 28.55039978 C1.08954225 34.22381758 1.07971102 39.89720995 1.06866455 45.57061768 C1.0584528 51.35501766 1.05387142 57.13942173 1.04882812 62.92382812 C1.03808885 74.28256328 1.02101111 85.64127953 1 97 C-0.32 96.67 -1.64 96.34 -3 96 C-3 95.34 -3 94.68 -3 94 C-4.32 94 -5.64 94 -7 94 C-7 64.3 -7 34.6 -7 4 C-7.66 3.67 -8.32 3.34 -9 3 C-8.67 2.67 -8.34 2.34 -8 2 C-8.66 1.34 -9.32 0.68 -10 0 C-6.681572 -1.659214 -3.60735024 -0.57259528 0 0 Z "  fill="#58A6FF" transform="translate(239,234)"/>
<path d="M0 0 C2.97888761 1.81069639 5.53524626 3.53524626 8 6 C10.56916657 6.30599063 13.04758384 6.51087087 15.625 6.625 C16.68460937 6.68300781 16.68460937 6.68300781 17.765625 6.7421875 C19.50998524 6.83647724 21.25495691 6.91932891 23 7 C23 7.33 23 7.66 23 8 C19.7 8.33 16.4 8.66 13 9 C15.0072908 12.0109362 15.83884224 12.63016497 19 14 C16.36 14.33 13.72 14.66 11 15 C11 21.6 11 28.2 11 35 C14.63 35.33 18.26 35.66 22 36 C21.67 37.32 21.34 38.64 21 40 C20.21625 39.979375 19.4325 39.95875 18.625 39.9375 C16.01885039 39.81315937 16.01885039 39.81315937 14 41 C14 41.66 14 42.32 14 43 C12.68 43 11.36 43 10 43 C9.67 43.99 9.34 44.98 9 46 C6.80316259 47.7691088 4.624764 49.39720742 2.3125 51 C1.69955078 51.43828125 1.08660156 51.8765625 0.45507812 52.328125 C-4.69339542 55.95334922 -9.66451372 59.06831084 -16 60 C-15.64598897 56.81390075 -15.16972964 55.20933322 -13.125 52.6875 C-11 51 -11 51 -8 51 C-7.67 50.01 -7.34 49.02 -7 48 C-6.34 48 -5.68 48 -5 48 C-4.34 46.35 -3.68 44.7 -3 43 C-1.35 43 0.3 43 2 43 C2 42.34 2 41.68 2 41 C2.66 40.34 3.32 39.68 4 39 C3.67 38.34 3.34 37.68 3 37 C2.8249511 35.10116757 2.70204619 33.19740555 2.60546875 31.29296875 C2.53650391 30.14892578 2.46753906 29.00488281 2.39648438 27.82617188 C2.25786939 25.41271658 2.13014972 22.99860929 2.01367188 20.58398438 C1.94083984 19.43607422 1.86800781 18.28816406 1.79296875 17.10546875 C1.7364917 16.05512451 1.68001465 15.00478027 1.62182617 13.92260742 C0.86910303 10.38477909 -0.60965798 8.66402096 -3 6 C-3.33 5.34 -3.66 4.68 -4 4 C-6.02463255 3.34786708 -6.02463255 3.34786708 -8 3 C-8 2.01 -8 1.02 -8 0 C-4.57086463 -1.14304512 -3.41406669 -1.0321597 0 0 Z "  fill="#58A6FF" transform="translate(281,266)"/>
<path d="M0 0 C1 2 1 2 0.8125 4.375 C1.06059794 7.84837115 2.4886974 8.72413202 5 11 C5 11.66 5 12.32 5 13 C7.475 13.495 7.475 13.495 10 14 C10.495 15.485 10.495 15.485 11 17 C8.29120665 18.35439668 5.99066732 18.06501451 3 18 C1.9910966 22.23646767 1.9910966 22.23646767 2.9375 26.375 C3.288125 26.91125 3.63875 27.4475 4 28 C3.01 28 2.02 28 1 28 C1 27.34 1 26.68 1 26 C-1.99539596 25.00153468 -4.37721854 24.74443458 -7.515625 24.53515625 C-8.60230469 24.45716797 -9.68898437 24.37917969 -10.80859375 24.29882812 C-13.08704768 24.14236222 -15.36569439 23.98867672 -17.64453125 23.83789062 C-23.36586947 23.42246878 -28.56760691 22.87621669 -34 21 C-34 21.66 -34 22.32 -34 23 C-35.98 23.33 -37.96 23.66 -40 24 C-39.505 19.545 -39.505 19.545 -39 15 C-41.97 14.505 -41.97 14.505 -45 14 C-45 13.67 -45 13.34 -45 13 C-42.03 13.33 -39.06 13.66 -36 14 C-35.67 15.32 -35.34 16.64 -35 18 C-34.34 18.33 -33.68 18.66 -33 19 C-32.71125 18.360625 -32.4225 17.72125 -32.125 17.0625 C-31 15 -31 15 -29 14 C-21.83495489 13.64762073 -21.83495489 13.64762073 -18.6953125 14.97265625 C-15.31824953 16.25985561 -12.28918941 16.42303611 -8.6875 16.625 C-7.43324219 16.69976562 -6.17898437 16.77453125 -4.88671875 16.8515625 C-3.93410156 16.90054688 -2.98148438 16.94953125 -2 17 C-3.71171451 13.94802808 -4.84213948 12.11747759 -7.6875 10 C-10 8 -10 8 -10.5625 5.4375 C-10 3 -10 3 -8.375 1.1875 C-5.42797793 -0.28601103 -3.25295114 -0.22179212 0 0 Z "  fill="#58A6FF" transform="translate(232,190)"/>
<path d="M0 0 C1.00417969 -0.03738281 2.00835937 -0.07476562 3.04296875 -0.11328125 C10.58403217 -0.20108147 15.56240542 1.55559783 22 5.375 C23.20284573 5.99001947 24.4103834 6.59606673 25.625 7.1875 C26.40875 7.579375 27.1925 7.97125 28 8.375 C27.67 9.365 27.34 10.355 27 11.375 C24.36 11.045 21.72 10.715 19 10.375 C19 11.365 19 12.355 19 13.375 C18.01 13.705 17.02 14.035 16 14.375 C15.12601563 13.91222656 14.25203125 13.44945312 13.3515625 12.97265625 C9.18974807 10.98876103 5.91919607 10.82433384 1.375 10.8125 C0.24964844 10.75739258 0.24964844 10.75739258 -0.8984375 10.70117188 C-3.39986376 10.61420511 -3.39986376 10.61420511 -7 11.375 C-9.44022181 14.2835444 -9.44022181 14.2835444 -11 17.375 C-11.66 17.375 -12.32 17.375 -13 17.375 C-13 21.995 -13 26.615 -13 31.375 C-13.66 31.045 -14.32 30.715 -15 30.375 C-15 25.755 -15 21.135 -15 16.375 C-14.34 16.375 -13.68 16.375 -13 16.375 C-12.855625 15.7975 -12.71125 15.22 -12.5625 14.625 C-12.04166667 12.54166667 -11.52083333 10.45833333 -11 8.375 C-14.0109362 10.3822908 -14.63016497 11.21384224 -16 14.375 C-16.66 14.375 -17.32 14.375 -18 14.375 C-18.33 15.365 -18.66 16.355 -19 17.375 C-19.66 17.375 -20.32 17.375 -21 17.375 C-19.67536564 11.1492185 -16.94471018 6.37020365 -13 1.375 C-9.09183441 -0.57908279 -4.29813381 0.05887855 0 0 Z "  fill="#58A6FF" transform="translate(212,223.625)"/>
<path d="M0 0 C6.43761549 1.84394011 12.81924228 3.86856491 19.1875 5.9375 C19.94724121 6.17807129 20.70698242 6.41864258 21.48974609 6.66650391 C25.15772676 7.8710467 28.47794855 9.17158962 31.8046875 11.14453125 C35.46986169 13.27284144 37.83745001 13.6602 42 14 C42 14.33 42 14.66 42 15 C38.04 15 34.08 15 30 15 C29.67 15.66 29.34 16.32 29 17 C28.34 17 27.68 17 27 17 C27 18.98 27 20.96 27 23 C26.01 23.495 26.01 23.495 25 24 C24.979375 23.39542969 24.95875 22.79085937 24.9375 22.16796875 C24.1292583 19.6386645 24.1292583 19.6386645 20.875 18.55078125 C19.58870512 18.12157335 18.29662781 17.70940083 17 17.3125 C10.06768559 15.06768559 10.06768559 15.06768559 9 14 C6.25696104 13.32833293 6.25696104 13.32833293 3 14 C0.96872061 15.68570904 -0.7403638 17.48906161 -2.484375 19.46875 C-2.98453125 19.9740625 -3.4846875 20.479375 -4 21 C-4.66 21 -5.32 21 -6 21 C-6.33 24.63 -6.66 28.26 -7 32 C-7.33 32 -7.66 32 -8 32 C-8 27.71 -8 23.42 -8 19 C-7.34 19 -6.68 19 -6 19 C-5.9175 18.21625 -5.835 17.4325 -5.75 16.625 C-5 14 -5 14 -3.0625 12.6875 C-1 12 -1 12 1 12 C1.33 8.7 1.66 5.4 2 2 C1.34 2 0.68 2 0 2 C0 1.34 0 0.68 0 0 Z "  fill="#58A6FF" transform="translate(269,112)"/>
<path d="M0 0 C-0.14148989 1.6045556 -0.28835686 3.20863767 -0.4375 4.8125 C-0.51871094 5.70582031 -0.59992188 6.59914062 -0.68359375 7.51953125 C-1 10 -1 10 -2 13 C-2.66 13 -3.32 13 -4 13 C-4 14.32 -4 15.64 -4 17 C-4.639375 17.226875 -5.27875 17.45375 -5.9375 17.6875 C-8.27193661 18.85250896 -8.27193661 18.85250896 -8.75 21.625 C-8.8325 22.40875 -8.915 23.1925 -9 24 C-10.32 24 -11.64 24 -13 24 C-12.979375 25.299375 -12.95875 26.59875 -12.9375 27.9375 C-12.91600546 29.29165633 -12.92851801 30.64756083 -13 32 C-13.495 32.495 -13.495 32.495 -14 33 C-13.96132813 33.88042969 -13.92265625 34.76085937 -13.8828125 35.66796875 C-14.02044579 39.58134207 -15.07542922 41.85542981 -16.875 45.3125 C-17.40867187 46.36050781 -17.94234375 47.40851563 -18.4921875 48.48828125 C-20 51 -20 51 -22 52 C-21.979375 51.030625 -21.95875 50.06125 -21.9375 49.0625 C-21.64381501 46.12534105 -21.64381501 46.12534105 -23 45 C-22.67 44.01 -22.34 43.02 -22 42 C-21.94516266 39.77578816 -21.94516266 39.77578816 -22.1875 37.4375 C-22.24292969 36.65246094 -22.29835938 35.86742187 -22.35546875 35.05859375 C-22.81514768 32.80579529 -22.81514768 32.80579529 -25.05078125 31.72265625 C-26.01564453 31.36494141 -26.01564453 31.36494141 -27 31 C-26.67 30.34 -26.34 29.68 -26 29 C-25.34 29.66 -24.68 30.32 -24 31 C-22.10134397 28.02819057 -20.64544429 25.48539917 -20 22 C-19.34 22 -18.68 22 -18 22 C-18.20625 21.21625 -18.4125 20.4325 -18.625 19.625 C-18.74875 18.75875 -18.8725 17.8925 -19 17 C-18.34 16.34 -17.68 15.68 -17 15 C-14.375 15.375 -14.375 15.375 -12 16 C-11.63648438 15.00419922 -11.63648438 15.00419922 -11.265625 13.98828125 C-5.95620438 0 -5.95620438 0 0 0 Z "  fill="#58A6FF" transform="translate(348,239)"/>
<path d="M0 0 C1.32 0 2.64 0 4 0 C5.28060538 2.56121075 5.16219994 4.43635491 5.20874023 7.30419922 C5.22803085 8.4122995 5.24732147 9.52039978 5.26719666 10.66207886 C5.32475787 15.72699866 5.37419356 20.79177446 5.4050293 25.85693359 C5.42285155 28.5325509 5.45768274 31.2071159 5.50756836 33.88232422 C5.57429838 37.73176786 5.60198419 41.57974842 5.62109375 45.4296875 C5.64892441 46.62769989 5.67675507 47.82571228 5.70542908 49.06002808 C5.68523244 57.1721847 5.68523244 57.1721847 3.62210083 59.66461182 C1.96118164 60.78564453 1.96118164 60.78564453 -1 62 C-1.02312764 54.06386213 -1.04091723 46.12773824 -1.05181217 38.19157505 C-1.05704008 34.50685502 -1.06413605 30.82215797 -1.07543945 27.13745117 C-1.08627162 23.58429169 -1.09227753 20.03115437 -1.09487724 16.47797966 C-1.0967309 15.11954334 -1.10035038 13.76110829 -1.10573006 12.40268135 C-1.11294475 10.50617777 -1.11340809 8.60965207 -1.11352539 6.71313477 C-1.115746 5.63169693 -1.11796661 4.55025909 -1.12025452 3.43605042 C-1 1 -1 1 0 0 Z "  fill="#58A6FF" transform="translate(234,123)"/>
<path d="M0 0 C0.99 0.33 1.98 0.66 3 1 C3.06058594 1.60328125 3.12117187 2.2065625 3.18359375 2.828125 C3.26738281 3.62734375 3.35117188 4.4265625 3.4375 5.25 C3.55931641 6.43335938 3.55931641 6.43335938 3.68359375 7.640625 C3.99511197 10.29618363 3.99511197 10.29618363 5 14 C8.3 13.67 11.6 13.34 15 13 C15 14.66666667 15 16.33333333 15 18 C13.35 18.33 11.7 18.66 10 19 C9.90235126 23.78478822 10.22887459 28.27685687 11 33 C10.34 33 9.68 33 9 33 C9 33.99 9 34.98 9 36 C7.515 35.505 7.515 35.505 6 35 C5.525625 34.030625 5.05125 33.06125 4.5625 32.0625 C3.36868228 28.90945403 3.36868228 28.90945403 1.05859375 28.18359375 C-2.6764311 26.03613164 -3.27221496 21.64026064 -4.65625 17.75 C-5.75700894 14.89132443 -5.75700894 14.89132443 -8.15625 13.625 C-8.7646875 13.41875 -9.373125 13.2125 -10 13 C-9.67 11.02 -9.34 9.04 -9 7 C-7.6078125 7.2784375 -7.6078125 7.2784375 -6.1875 7.5625 C-2.98656229 8.24123881 -2.98656229 8.24123881 0 7 C0 4.69 0 2.38 0 0 Z "  fill="#58A6FF" transform="translate(167,251)"/>
<path d="M0 0 C7.81818182 2.54545455 7.81818182 2.54545455 11 4 C11.33 4.66 11.66 5.32 12 6 C22.23 6 32.46 6 43 6 C43.495 8.97 43.495 8.97 44 12 C43.34 12 42.68 12 42 12 C41.67 12.99 41.34 13.98 41 15 C40.01 14.67 39.02 14.34 38 14 C37.34 14.33 36.68 14.66 36 15 C34.57281123 15.09538588 33.14130876 15.13073477 31.7109375 15.1328125 C30.85113281 15.13410156 29.99132812 15.13539063 29.10546875 15.13671875 C27.75388672 15.13091797 27.75388672 15.13091797 26.375 15.125 C25.05822266 15.13080078 25.05822266 15.13080078 23.71484375 15.13671875 C9.32634922 15.11533911 9.32634922 15.11533911 5.25 11.6875 C4.13625 10.3571875 4.13625 10.3571875 3 9 C2.21625 8.34 1.4325 7.68 0.625 7 C-1 5 -1 5 -0.75 2.25 C-0.5025 1.5075 -0.255 0.765 0 0 Z "  fill="#58A6FF" transform="translate(280,238)"/>
<path d="M0 0 C1.65 0.66 3.3 1.32 5 2 C3.02 2.99 3.02 2.99 1 4 C1 4.66 1 5.32 1 6 C-0.98 6.99 -0.98 6.99 -3 8 C-0.89489719 12.09941074 1.02937033 13.76015762 5 16 C5.66 16.99 6.32 17.98 7 19 C7.99 19.268125 8.98 19.53625 10 19.8125 C13 21 13 21 14.5 23.875 C15.03047357 27.19045979 14.87372983 28.29350136 13 31 C12.505 28.525 12.505 28.525 12 26 C10.0085944 25.61866701 8.00720923 25.28674418 6 25 C5.67 25.33 5.34 25.66 5 26 C4.34 26.33 3.68 26.66 3 27 C2.34 27.99 1.68 28.98 1 30 C0.86207031 29.43410156 0.72414062 28.86820313 0.58203125 28.28515625 C-0.32758646 25.65788478 -1.07297971 24.0300236 -3 22 C-7.34199992 20.96414588 -11.55038819 20.8971188 -16 21 C-16 20.01 -16 19.02 -16 18 C-13.03 18.33 -10.06 18.66 -7 19 C-7 15.7 -7 12.4 -7 9 C-10.3 9 -13.6 9 -17 9 C-16.01 7.68 -15.02 6.36 -14 5 C-13.01 5 -12.02 5 -11 5 C-11 4.34 -11 3.68 -11 3 C-9.1128125 3.0928125 -9.1128125 3.0928125 -7.1875 3.1875 C-3.83041021 3.23632922 -3.83041021 3.23632922 -1 1.5 C-0.67 1.005 -0.34 0.51 0 0 Z "  fill="#58A6FF" transform="translate(205,126)"/>
<path d="M0 0 C0.99 0.66 1.98 1.32 3 2 C5.32387947 2.39387788 7.65793749 2.73486085 10 3 C9.34 3.33 8.68 3.66 8 4 C7.70609375 4.7425 7.4121875 5.485 7.109375 6.25 C4.28700706 13.24629235 -1.79510892 19.76939244 -8 24 C-9.32 24 -10.64 24 -12 24 C-12 24.66 -12 25.32 -12 26 C-12.99 25.67 -13.98 25.34 -15 25 C-15 24.34 -15 23.68 -15 23 C-15.99 23.33 -16.98 23.66 -18 24 C-20.13794525 24.0833804 -22.27842009 24.10733747 -24.41796875 24.09765625 C-25.67158203 24.09443359 -26.92519531 24.09121094 -28.21679688 24.08789062 C-29.52712891 24.07951172 -30.83746094 24.07113281 -32.1875 24.0625 C-33.52278481 24.05748317 -34.85807141 24.05292059 -36.19335938 24.04882812 C-39.46228473 24.03702695 -42.73111991 24.02056297 -46 24 C-46 23.01 -46 22.02 -46 21 C-45.67 21.33 -45.34 21.66 -45 22 C-30.45910228 24.15279928 -30.45910228 24.15279928 -16.69189453 20.68603516 C-13.10075519 17.49505402 -10.66467184 13.71719032 -8.19775391 9.63378906 C-6.30456515 7.05139625 -3.69747877 5.65058191 -1 4 C-0.04768403 1.87880872 -0.04768403 1.87880872 0 0 Z "  fill="#58A6FF" transform="translate(338,221)"/>
<path d="M0 0 C4.90358027 1.82682402 7.65065326 4.61278523 10.1875 9.1875 C11.14238993 14.34347795 11.00606372 19.41040648 10.87109375 24.625 C10.85801783 26.11569888 10.84806308 27.6064281 10.84107971 29.09716797 C10.81450919 32.99746568 10.74588911 36.89590256 10.66815186 40.79547119 C10.59620001 44.78396436 10.56450064 48.77276193 10.52929688 52.76171875 C10.45450118 60.57115562 10.33522894 68.37906587 10.1875 76.1875 C9.1975 76.6825 9.1975 76.6825 8.1875 77.1875 C8.5175 55.0775 8.8475 32.9675 9.1875 10.1875 C7.2075 10.5175 5.2275 10.8475 3.1875 11.1875 C2.8575 31.6475 2.5275 52.1075 2.1875 73.1875 C0.2075 74.1775 0.2075 74.1775 -1.8125 75.1875 C-1.4825 74.1975 -1.1525 73.2075 -0.8125 72.1875 C-0.72397181 70.30093185 -0.69487778 68.41134476 -0.69897461 66.52270508 C-0.69908791 64.78123955 -0.69908791 64.78123955 -0.69920349 63.0045929 C-0.70436478 61.75139755 -0.70952606 60.49820221 -0.71484375 59.20703125 C-0.7162587 57.92390549 -0.71767365 56.64077972 -0.71913147 55.31877136 C-0.72294595 51.91079759 -0.73276709 48.50286657 -0.74383545 45.09490967 C-0.75407257 41.61601337 -0.75863402 38.13711015 -0.76367188 34.65820312 C-0.77439033 27.83461788 -0.79145391 21.01106099 -0.8125 14.1875 C-4.09200861 13.11085786 -4.56795807 13.06772436 -7.875 14.6875 C-8.844375 15.1825 -9.81375 15.6775 -10.8125 16.1875 C-11.8025 15.8575 -12.7925 15.5275 -13.8125 15.1875 C-13.173125 14.89875 -12.53375 14.61 -11.875 14.3125 C-9.66043921 13.35926549 -9.66043921 13.35926549 -8.8125 11.1875 C-5.50152394 8.98018263 -2.71840763 9.00995874 1.1875 9.1875 C1.1875 7.8675 1.1875 6.5475 1.1875 5.1875 C-1.4525 4.5275 -4.0925 3.8675 -6.8125 3.1875 C-4.49898107 0.96296256 -3.23985246 0.21599016 0 0 Z "  fill="#58A6FF" transform="translate(230.8125,112.8125)"/>
<path d="M0 0 C0.99 0 1.98 0 3 0 C4.62912132 3.06032459 6.252557 6.12363037 7.875 9.1875 C8.33519531 10.05181641 8.79539062 10.91613281 9.26953125 11.80664062 C9.71425781 12.64775391 10.15898437 13.48886719 10.6171875 14.35546875 C11.02565918 15.12528076 11.43413086 15.89509277 11.85498047 16.68823242 C14.52550931 22.07996752 17 27.92499881 17 34 C16.649375 33.505 16.29875 33.01 15.9375 32.5 C13.05625711 30.26936034 10.52990974 30.80019379 7 31 C4.97171254 34.34350511 4.83309596 36.75491254 5 40.625 C5.125 43.5390625 5.125 43.5390625 5 46 C4.34 46.66 3.68 47.32 3 48 C2.34 48 1.68 48 1 48 C0.01 48.66 -0.98 49.32 -2 50 C-0.84826645 47.53199953 0.04783565 45.95216435 2 44 C2.1400329 41.44877561 1.99523436 38.96137904 1.875 36.41015625 C2 34 2 34 4 31 C3.76178872 25.04471797 1.56691595 20.26516248 -1 15 C-0.01 15.33 0.98 15.66 2 16 C2 16.66 2 17.32 2 18 C2.66 18 3.32 18 4 18 C3.79375 17.2575 3.5875 16.515 3.375 15.75 C2.95591249 12.67669159 3.38050989 11.57213134 5 9 C4.01 8.34 3.02 7.68 2 7 C-0.00838196 7.64097297 -2.00827818 8.30899447 -4 9 C-6.375 8.625 -6.375 8.625 -8 8 C-7.236875 7.79375 -6.47375 7.5875 -5.6875 7.375 C-2.17770897 5.57929296 -1.47400219 3.56863688 0 0 Z "  fill="#58A6FF" transform="translate(334,179)"/>
<path d="M0 0 C0.66 0 1.32 0 2 0 C2 0.66 2 1.32 2 2 C2.66 2 3.32 2 4 2 C4 2.66 4 3.32 4 4 C4.57975586 4.25378418 5.15951172 4.50756836 5.75683594 4.76904297 C8.25072223 6.13758615 9.89743836 7.66997769 11.890625 9.6953125 C12.95410156 10.76845703 12.95410156 10.76845703 14.0390625 11.86328125 C14.76867187 12.60964844 15.49828125 13.35601562 16.25 14.125 C16.99507813 14.87910156 17.74015625 15.63320312 18.5078125 16.41015625 C20.3431342 18.26900772 22.1736191 20.13237005 24 22 C20.24023438 23.09716797 20.24023438 23.09716797 18.078125 22.22265625 C15.5390625 20.61132812 15.5390625 20.61132812 13 19 C13.33 19.99 13.66 20.98 14 22 C13.34 22 12.68 22 12 22 C13.98 24.31 15.96 26.62 18 29 C17.67 29.66 17.34 30.32 17 31 C15.66070495 29.71451591 14.32871357 28.42141845 13 27.125 C12.2575 26.40570313 11.515 25.68640625 10.75 24.9453125 C9 23 9 23 9 21 C8.34 21 7.68 21 7 21 C7 20.34 7 19.68 7 19 C6.34 19 5.68 19 5 19 C5 18.34 5 17.68 5 17 C4.34 17 3.68 17 3 17 C3 16.34 3 15.68 3 15 C1.68 14.34 0.36 13.68 -1 13 C-1.02689449 15.95839355 -1.04678741 18.91654427 -1.0625 21.875 C-1.07087891 22.71675781 -1.07925781 23.55851562 -1.08789062 24.42578125 C-1.09111328 25.23144531 -1.09433594 26.03710938 -1.09765625 26.8671875 C-1.10289307 27.61081543 -1.10812988 28.35444336 -1.11352539 29.12060547 C-1.11786636 31.09132568 -1.11786636 31.09132568 0 33 C-0.99 32.67 -1.98 32.34 -3 32 C-3 24.74 -3 17.48 -3 10 C-1.02 10.99 -1.02 10.99 1 12 C0.67 10.68 0.34 9.36 0 8 C-0.66 8 -1.32 8 -2 8 C-2 7.34 -2 6.68 -2 6 C-1.01 6 -0.02 6 1 6 C0.67 4.02 0.34 2.04 0 0 Z "  fill="#58A6FF" transform="translate(267,219)"/>
<path d="M0 0 C0.103125 0.61875 0.20625 1.2375 0.3125 1.875 C0.87525373 4.36526484 0.87525373 4.36526484 4 6 C5.155 6.144375 6.31 6.28875 7.5 6.4375 C11 7 11 7 12.42700195 8.50317383 C14.52238551 10.49708918 15.81055262 10.42071824 18.66796875 10.51171875 C19.56064453 10.54716797 20.45332031 10.58261719 21.37304688 10.61914062 C22.30181641 10.64169922 23.23058594 10.66425781 24.1875 10.6875 C25.12787109 10.72166016 26.06824219 10.75582031 27.03710938 10.79101562 C29.35795393 10.87348218 31.67842148 10.94263403 34 11 C30.25 13 30.25 13 28 13 C28 14.32 28 15.64 28 17 C27.01 17.33 26.02 17.66 25 18 C26.32 18.66 27.64 19.32 29 20 C23.39 20 17.78 20 12 20 C11.67 20.99 11.34 21.98 11 23 C7.48733728 23.63609586 4.48566369 23.86003313 1 23 C-1.97765785 20.01710901 -4.00621676 16.6970815 -6 13 C-5.67 12.34 -5.34 11.68 -5 11 C-3.125 11.5625 -3.125 11.5625 -1 13 C0.1875 16.5625 0.1875 16.5625 1 20 C2.96822886 21.96822886 6.34808709 21.66248381 9 22 C8.67 21.01 8.34 20.02 8 19 C5.98491642 18.26676204 5.98491642 18.26676204 4 18 C3.67 16.35 3.34 14.7 3 13 C4.98 12.67 6.96 12.34 9 12 C9 13.32 9 14.64 9 16 C9.66 16 10.32 16 11 16 C10.67 14.35 10.34 12.7 10 11 C8.741875 10.7525 7.48375 10.505 6.1875 10.25 C3.39805767 9.54274778 2.1379471 9.12122624 -0.0625 7.1875 C-1.25584046 4.40303892 -0.87146773 2.8520762 0 0 Z M4 14 C4.33 14.99 4.66 15.98 5 17 C5.99 16.67 6.98 16.34 8 16 C8 15.34 8 14.68 8 14 C6.68 14 5.36 14 4 14 Z "  fill="#58A6FF" transform="translate(180,164)"/>
<path d="M0 0 C4.29 0 8.58 0 13 0 C13 5.61 13 11.22 13 17 C8.05 17 3.1 17 -2 17 C-1.67 17.99 -1.34 18.98 -1 20 C-2.65 19.67 -4.3 19.34 -6 19 C-6.22174933 17.54364629 -6.42698698 16.08477044 -6.625 14.625 C-6.74101562 13.81289063 -6.85703125 13.00078125 -6.9765625 12.1640625 C-6.98429688 11.44992187 -6.99203125 10.73578125 -7 10 C-6.34 9.34 -5.68 8.68 -5 8 C-4.01 10.31 -3.02 12.62 -2 15 C-0.35 14.67 1.3 14.34 3 14 C3 12.02 3 10.04 3 8 C1.02 8 -0.96 8 -3 8 C-3.33 7.34 -3.66 6.68 -4 6 C-3.525625 5.566875 -3.05125 5.13375 -2.5625 4.6875 C-0.76313043 2.97690387 -0.76313043 2.97690387 0 0 Z "  fill="#58A6FF" transform="translate(208,273)"/>
<path d="M0 0 C0 0.66 0 1.32 0 2 C-2.5 3.625 -2.5 3.625 -5 5 C-4.36191406 5.04898438 -3.72382813 5.09796875 -3.06640625 5.1484375 C-2.24011719 5.22320312 -1.41382813 5.29796875 -0.5625 5.375 C0.26121094 5.44460937 1.08492187 5.51421875 1.93359375 5.5859375 C2.61550781 5.72257813 3.29742187 5.85921875 4 6 C5.36952673 8.73905345 5.12621361 10.97087332 5 14 C4.67 14.66 4.34 15.32 4 16 C-2.75 16.125 -2.75 16.125 -5 15 C-5 15.99 -5 16.98 -5 18 C-3.989375 17.79375 -2.97875 17.5875 -1.9375 17.375 C2.33018507 16.9685538 5.03598848 17.41439539 9 19 C9.33 19.99 9.66 20.98 10 22 C8.53626953 21.94779297 8.53626953 21.94779297 7.04296875 21.89453125 C5.13451172 21.85392578 5.13451172 21.85392578 3.1875 21.8125 C1.92292969 21.77769531 0.65835938 21.74289063 -0.64453125 21.70703125 C-3.88835706 21.71964102 -3.88835706 21.71964102 -5.78125 23.1875 C-7.29742195 25.44231982 -8.51043972 27.73794212 -9.6875 30.1875 C-10.12449219 31.08855469 -10.56148437 31.98960937 -11.01171875 32.91796875 C-11.33785156 33.60503906 -11.66398438 34.29210937 -12 35 C-13.09898702 31.70303895 -12.87124444 30.59505097 -12.0625 27.3125 C-11.86785156 26.50425781 -11.67320312 25.69601563 -11.47265625 24.86328125 C-11.31667969 24.24839844 -11.16070312 23.63351563 -11 23 C-10.34 23 -9.68 23 -9 23 C-9.185625 21.865625 -9.37125 20.73125 -9.5625 19.5625 C-9.706875 18.386875 -9.85125 17.21125 -10 16 C-9.67 15.67 -9.34 15.34 -9 15 C-9.66 14.67 -10.32 14.34 -11 14 C-11.66 15.32 -12.32 16.64 -13 18 C-13.66 18 -14.32 18 -15 18 C-13.63648771 14.23346605 -11.92096222 11.15351373 -9.625 7.875 C-9.03976563 7.02679688 -8.45453125 6.17859375 -7.8515625 5.3046875 C-3.58983051 0 -3.58983051 0 0 0 Z M-2 8 C-2.6814823 9.89179203 -2.6814823 9.89179203 -3 12 C-2.34 12.66 -1.68 13.32 -1 14 C-0.01 14 0.98 14 2 14 C2.33 12.35 2.66 10.7 3 9 C1.35 8.67 -0.3 8.34 -2 8 Z "  fill="#58A6FF" transform="translate(194,129)"/>
<path d="M0 0 C2.64 0.33 5.28 0.66 8 1 C8 4.63 8 8.26 8 12 C9.32 12.66 10.64 13.32 12 14 C12.75 17.125 12.75 17.125 13 20 C11.68 20.33 10.36 20.66 9 21 C5 16.375 5 16.375 5 13 C4.64292969 13.51175781 4.28585938 14.02351563 3.91796875 14.55078125 C2 16 2 16 -1.13671875 15.85546875 C-2.30847656 15.63503906 -3.48023438 15.41460937 -4.6875 15.1875 C-5.86699219 14.97480469 -7.04648438 14.76210938 -8.26171875 14.54296875 C-9.16535156 14.36378906 -10.06898438 14.18460937 -11 14 C-11.33 13.01 -11.66 12.02 -12 11 C-13.98 11 -15.96 11 -18 11 C-18 10.34 -18 9.68 -18 9 C-14.81175432 7.40587716 -11.37103338 7.89825265 -7.875 7.9375 C-7.12089844 7.94201172 -6.36679688 7.94652344 -5.58984375 7.95117188 C-3.72652873 7.96296501 -1.86325445 7.98090058 0 8 C0 5.36 0 2.72 0 0 Z "  fill="#58A6FF" transform="translate(206,290)"/>
<path d="M0 0 C0.99 0.33 1.98 0.66 3 1 C3.14695312 1.94359375 3.14695312 1.94359375 3.296875 2.90625 C4.19940311 8.07244541 5.41348914 12.3748527 7.91796875 16.98046875 C9.50890014 19.94982445 10.819016 23.0323314 12.16796875 26.1171875 C12.74642277 27.42617735 13.35999008 28.71998016 14 30 C13.09507812 29.85691406 13.09507812 29.85691406 12.171875 29.7109375 C11.37265625 29.60007813 10.5734375 29.48921875 9.75 29.375 C8.96109375 29.25898438 8.1721875 29.14296875 7.359375 29.0234375 C4.67847541 28.99680605 3.27305911 29.63407916 1 31 C0.896875 30.29875 0.79375 29.5975 0.6875 28.875 C0.08490202 25.87432137 0.08490202 25.87432137 -1.5625 22.875 C-3 20 -3 20 -3 17 C-4.32 16.67 -5.64 16.34 -7 16 C-6.071875 15.731875 -5.14375 15.46375 -4.1875 15.1875 C-0.47300903 13.84189786 -0.47300903 13.84189786 2 11 C2.25069913 8.37429296 2.25069913 8.37429296 2 6 C1.01 5.67 0.02 5.34 -1 5 C-1 6.98 -1 8.96 -1 11 C-7.15234375 11.09765625 -7.15234375 11.09765625 -9 11 C-10 10 -10 10 -10.1875 7.5625 C-10 5 -10 5 -8 3 C-5.375 3.375 -5.375 3.375 -3 4 C-3 3.34 -3 2.68 -3 2 C-2.01 1.34 -1.02 0.68 0 0 Z M-8 4 C-8.33 5.65 -8.66 7.3 -9 9 C-6.525 9.495 -6.525 9.495 -4 10 C-3.3185177 8.10820797 -3.3185177 8.10820797 -3 6 C-3.66 5.34 -4.32 4.68 -5 4 C-5.99 4 -6.98 4 -8 4 Z "  fill="#58A6FF" transform="translate(314,129)"/>
<path d="M0 0 C1.32 0.33 2.64 0.66 4 1 C4.04630379 14.09966662 4.08185928 27.19931383 4.10362434 40.29904556 C4.11406952 46.38152198 4.12824219 52.46394248 4.15087891 58.54638672 C4.17258099 64.41429953 4.1845631 70.2821585 4.18975449 76.15010834 C4.19345497 78.39084471 4.20068091 80.63157807 4.21146011 82.87229156 C4.22593989 86.00639761 4.2279794 89.14028004 4.22705078 92.27441406 C4.23783661 93.66947929 4.23783661 93.66947929 4.24884033 95.09272766 C4.246091 95.94805588 4.24334167 96.80338409 4.24050903 97.68463135 C4.24235262 98.42575291 4.24419621 99.16687447 4.24609566 99.93045425 C3.96375756 102.30478143 3.1758273 103.93442914 2 106 C0.65826597 105.07456291 -0.67320159 104.13422595 -2 103.1875 C-2.7425 102.66542969 -3.485 102.14335937 -4.25 101.60546875 C-4.8275 101.07566406 -5.405 100.54585938 -6 100 C-6 99.01 -6 98.02 -6 97 C-5.01 97 -4.02 97 -3 97 C-1.95107762 98.63631892 -0.95093297 100.30485863 0 102 C0.66 102.33 1.32 102.66 2 103 C2 69.34 2 35.68 2 1 C1.34 0.67 0.68 0.34 0 0 Z "  fill="#58A6FF" transform="translate(239,231)"/>
<path d="M0 0 C1.65 0 3.3 0 5 0 C5.33 1.65 5.66 3.3 6 5 C6.99 5 7.98 5 9 5 C8.67 6.98 8.34 8.96 8 11 C8.66 11 9.32 11 10 11 C10 10.34 10 9.68 10 9 C12.5 7.375 12.5 7.375 15 6 C11.9398975 12.80686214 5.87878386 18.1832045 -1 21 C-13.93184509 25.32058177 -13.93184509 25.32058177 -20 25 C-18.68 24.67 -17.36 24.34 -16 24 C-16 22.68 -16 21.36 -16 20 C-14.02 20 -12.04 20 -10 20 C-10 19.01 -10 18.02 -10 17 C-8.68 16.67 -7.36 16.34 -6 16 C-6 15.01 -6 14.02 -6 13 C-4.88625 13.0309375 -4.88625 13.0309375 -3.75 13.0625 C-0.8892441 12.28277913 -0.8892441 12.28277913 0.1875 10 C1.19531374 7.68795671 2.11597055 5.36174533 3 3 C3.33 2.34 3.66 1.68 4 1 C2.68 0.67 1.36 0.34 0 0 Z "  fill="#58A6FF" transform="translate(311,285)"/>
<path d="M0 0 C0.66 0 1.32 0 2 0 C1.67 4.29 1.34 8.58 1 13 C8.26 13 15.52 13 23 13 C23 13.33 23 13.66 23 14 C20.03 14 17.06 14 14 14 C13.67 15.32 13.34 16.64 13 18 C8.5977005 20.08911518 4.56864556 20.24388841 -0.25 20.1875 C-2.08304688 20.17783203 -2.08304688 20.17783203 -3.953125 20.16796875 C-7 20 -7 20 -9 19 C-8.67 16.69 -8.34 14.38 -8 12 C-7.37480469 11.938125 -6.74960938 11.87625 -6.10546875 11.8125 C-3.77065807 11.19501975 -3.77065807 11.19501975 -2.98828125 8.75 C-2.76527344 7.8425 -2.54226562 6.935 -2.3125 6 C-1.0552381 1.0552381 -1.0552381 1.0552381 0 0 Z "  fill="#58A6FF" transform="translate(164,185)"/>
<path d="M0 0 C-0.99 2.31 -1.98 4.62 -3 7 C-3.66 7 -4.32 7 -5 7 C-5.33 7.99 -5.66 8.98 -6 10 C-7.32 10 -8.64 10 -10 10 C-10 10.66 -10 11.32 -10 12 C-10.99 12 -11.98 12 -13 12 C-13.33 12.99 -13.66 13.98 -14 15 C-14.66 15 -15.32 15 -16 15 C-16 15.66 -16 16.32 -16 17 C-16.66 17 -17.32 17 -18 17 C-17.34 17.928125 -16.68 18.85625 -16 19.8125 C-14 23 -14 23 -14 26 C-18.72763768 23.26847601 -20.92642516 21.06873851 -23 16 C-21.35 15.67 -19.7 15.34 -18 15 C-18 14.34 -18 13.68 -18 13 C-17.01 12.34 -16.02 11.68 -15 11 C-16.83700789 10.22757731 -16.83700789 10.22757731 -19 10 C-19.61875 10.7425 -19.61875 10.7425 -20.25 11.5 C-22 13 -22 13 -23.96484375 12.98046875 C-25.98545992 12.71413094 -27.99425702 12.36169136 -30 12 C-24.421646 7.54247002 -6.4945599 -3.24727995 0 0 Z "  fill="#58A6FF" transform="translate(224,117)"/>
<path d="M0 0 C2.31 0.66 4.62 1.32 7 2 C6.360625 2.2475 5.72125 2.495 5.0625 2.75 C2.8624253 3.81731571 2.8624253 3.81731571 2.125 5.9375 C1.77261893 8.31328252 1.77261893 8.31328252 4 11 C4.680625 11.165 5.36125 11.33 6.0625 11.5 C6.701875 11.665 7.34125 11.83 8 12 C8.33 12.99 8.66 13.98 9 15 C8.01 15.33 7.02 15.66 6 16 C6 16.66 6 17.32 6 18 C4.02 18.33 2.04 18.66 0 19 C0 20.98 0 22.96 0 25 C-2.97 25.66 -5.94 26.32 -9 27 C-8.58525633 21.71201818 -7.64775386 18.88309282 -4 15 C-4.63921965 12.52372901 -4.63921965 12.52372901 -6 10 C-7.66072849 9.31867549 -9.327767 8.65257873 -11 8 C-12.8125 5.375 -12.8125 5.375 -14 3 C-12.68 3 -11.36 3 -10 3 C-9.67 4.32 -9.34 5.64 -9 7 C-7.68 6.34 -6.36 5.68 -5 5 C-3.74335022 7.90600261 -3 9.79604584 -3 13 C-2.01 12.67 -1.02 12.34 0 12 C-0.08378906 11.21753906 -0.16757813 10.43507812 -0.25390625 9.62890625 C-0.35574219 8.61699219 -0.45757812 7.60507813 -0.5625 6.5625 C-0.66691406 5.55316406 -0.77132812 4.54382813 -0.87890625 3.50390625 C-0.91886719 2.67761719 -0.95882812 1.85132813 -1 1 C-0.67 0.67 -0.34 0.34 0 0 Z "  fill="#58A6FF" transform="translate(165,221)"/>
<path d="M0 0 C0.79953138 3.28696233 1.09658936 4.71023192 0 8 C1.65 8 3.3 8 5 8 C5 7.34 5 6.68 5 6 C7.31 6.33 9.62 6.66 12 7 C12 7.33 12 7.66 12 8 C10.948125 8.226875 9.89625 8.45375 8.8125 8.6875 C4.75297101 9.86007312 2.90388561 11.89351772 0 15 C-2.50044259 17.05510233 -5.04332772 19.04758166 -7.59765625 21.03515625 C-9.88501314 22.90595384 -11.9502084 24.87446552 -14 27 C-14 25.68 -14 24.36 -14 23 C-13.34 23 -12.68 23 -12 23 C-12.33 21.35 -12.66 19.7 -13 18 C-9.535 17.505 -9.535 17.505 -6 17 C-5.67 16.01 -5.34 15.02 -5 14 C-3.68 14 -2.36 14 -1 14 C-1.66 12.68 -2.32 11.36 -3 10 C-8.71658336 9.54267333 -11.48649253 10.47726246 -16 14 C-15.67 13.505 -15.34 13.01 -15 12.5 C-13.56363642 8.90909106 -13.87148538 5.85543873 -14 2 C-17.63 2 -21.26 2 -25 2 C-25 1.67 -25 1.34 -25 1 C-20 1 -15 1 -10 1 C-9.401875 0.649375 -8.80375 0.29875 -8.1875 -0.0625 C-5.19336613 -1.34570023 -3.11427701 -0.70779023 0 0 Z M-5 0 C-6.10836423 1.88316159 -6.10836423 1.88316159 -7 4 C-6.67 4.66 -6.34 5.32 -6 6 C-4.35 6 -2.7 6 -1 6 C-0.67 5.01 -0.34 4.02 0 3 C-0.66 2.01 -1.32 1.02 -2 0 C-2.99 0 -3.98 0 -5 0 Z "  fill="#58A6FF" transform="translate(193,205)"/>
<path d="M0 0 C4.225968 0.65575365 5.89919272 1.25849118 8.625 4.5625 C9.24937655 7.51788235 9.01789183 9.4684768 8.625 12.5625 C7.02990091 14.76074594 6.15579814 15.46441773 3.46875 15.9609375 C2.30859375 15.94933594 2.30859375 15.94933594 1.125 15.9375 C0.3515625 15.94523438 -0.421875 15.95296875 -1.21875 15.9609375 C-3.89060452 15.46722525 -4.77611883 14.73456498 -6.375 12.5625 C-6.79325993 8.79816063 -6.60178657 6.18949817 -5.3125 2.625 C-3.375 0.5625 -3.375 0.5625 0 0 Z M-1.375 6.5625 C-1.045 7.8825 -0.715 9.2025 -0.375 10.5625 C0.285 10.2325 0.945 9.9025 1.625 9.5625 C1.295 8.5725 0.965 7.5825 0.625 6.5625 C-0.035 6.5625 -0.695 6.5625 -1.375 6.5625 Z "  fill="#58A6FF" transform="translate(344.375,208.4375)"/>
<path d="M0 0 C1.04449911 3.13349732 0.93423645 3.98968256 0 7 C2.5419589 7.05434116 5.08273682 7.0938339 7.625 7.125 C8.69427734 7.15013672 8.69427734 7.15013672 9.78515625 7.17578125 C14.21716531 7.21644188 17.89985358 6.9049911 22 5 C22.33 4.01 22.66 3.02 23 2 C38.38061377 1.42402695 38.38061377 1.42402695 44 5 C45.4375 7.1875 45.4375 7.1875 46 9 C45.34 9.99 44.68 10.98 44 12 C43.01 11.67 42.02 11.34 41 11 C41 9.68 41 8.36 41 7 C38.03 6.67 35.06 6.34 32 6 C32 6.66 32 7.32 32 8 C31.01 8.33 30.02 8.66 29 9 C27.79117904 11.00016466 27.79117904 11.00016466 27 13 C27 12.01 27 11.02 27 10 C26.19256348 9.97494385 25.38512695 9.9498877 24.55322266 9.92407227 C20.91031083 9.80834513 17.26767274 9.68551365 13.625 9.5625 C12.35398438 9.52318359 11.08296875 9.48386719 9.7734375 9.44335938 C8.56171875 9.40146484 7.35 9.35957031 6.1015625 9.31640625 C4.98088379 9.27974854 3.86020508 9.24309082 2.70556641 9.20532227 C0 9 0 9 -2 8 C-1.125 2.25 -1.125 2.25 0 0 Z "  fill="#58A6FF" transform="translate(155,197)"/>
<path d="M0 0 C2.2421875 0.46875 2.2421875 0.46875 4.2421875 3.46875 C3.2521875 3.79875 2.2621875 4.12875 1.2421875 4.46875 C0.9121875 5.12875 0.5821875 5.78875 0.2421875 6.46875 C-0.5621875 6.283125 -1.3665625 6.0975 -2.1953125 5.90625 C-3.0409375 5.761875 -3.8865625 5.6175 -4.7578125 5.46875 C-6.05414871 6.53520115 -6.05414871 6.53520115 -5.8203125 9.03125 C-5.7996875 9.835625 -5.7790625 10.64 -5.7578125 11.46875 C-3.1178125 11.79875 -0.4778125 12.12875 2.2421875 12.46875 C2.2421875 10.48875 2.2421875 8.50875 2.2421875 6.46875 C3.5621875 6.46875 4.8821875 6.46875 6.2421875 6.46875 C6.69979909 10.4042097 6.53961492 12.04119809 4.2421875 15.34375 C0.91838061 17.69811321 -0.82940825 18.28407983 -4.8203125 18.01953125 C-8.50466279 16.97216554 -9.88089441 14.63604927 -11.7578125 11.46875 C-12.4462087 7.72081512 -12.02149613 6.0200885 -10.3828125 2.59375 C-6.87876508 -0.24285982 -4.39145813 -0.05212413 0 0 Z "  fill="#58A6FF" transform="translate(310.7578125,127.53125)"/>
<path d="M0 0 C0.598125 0.226875 1.19625 0.45375 1.8125 0.6875 C1.1525 1.3475 0.4925 2.0075 -0.1875 2.6875 C-0.35431109 5.77097826 -0.35431109 5.77097826 -0.1875 8.6875 C-0.8475 8.6875 -1.5075 8.6875 -2.1875 8.6875 C-2.23648438 9.29078125 -2.28546875 9.8940625 -2.3359375 10.515625 C-2.41070312 11.31484375 -2.48546875 12.1140625 -2.5625 12.9375 C-2.63210937 13.72640625 -2.70171875 14.5153125 -2.7734375 15.328125 C-3.20356477 17.77903889 -4.07595824 19.48286531 -5.1875 21.6875 C-4.87143897 24.34241264 -4.38147377 26.29955246 -3.1875 28.6875 C-8.0625 27.8125 -8.0625 27.8125 -9.1875 26.6875 C-9.5175 27.6775 -9.8475 28.6675 -10.1875 29.6875 C-9.5275 29.6875 -8.8675 29.6875 -8.1875 29.6875 C-8.5175 31.0075 -8.8475 32.3275 -9.1875 33.6875 C-12.18906498 29.56034816 -12.54834754 26.73936553 -12.1875 21.6875 C-11.90229595 20.01192621 -11.58794304 18.33932755 -11.1875 16.6875 C-10.5275 16.6875 -9.8675 16.6875 -9.1875 16.6875 C-9.06632813 16.09582031 -8.94515625 15.50414062 -8.8203125 14.89453125 C-5.49512271 -0.78501753 -5.49512271 -0.78501753 0 0 Z "  fill="#58A6FF" transform="translate(185.1875,143.3125)"/>
<path d="M0 0 C3.16115776 1.36983503 3.9927092 1.9890638 6 5 C6.30891093 9.2475253 6.33046701 12.3586453 4 16 C9.77816799 17.4686177 15.76809962 17.30942521 21.6953125 17.4296875 C26.59907932 17.60534482 29.98016414 17.86787789 34 21 C30.51001681 22.16332773 28.84653833 21.45989426 25.3984375 20.52050781 C20.82498432 19.52797909 16.16399017 19.52189733 11.5 19.375 C9.98019531 19.31699219 9.98019531 19.31699219 8.4296875 19.2578125 C5.9533969 19.16436757 3.47672452 19.08113408 1 19 C1.33 14.71 1.66 10.42 2 6 C-0.22942742 6.8210217 -0.22942742 6.8210217 -0.74609375 9.21484375 C-1.20625247 11.02688118 -1.66459245 12.83938146 -2.12109375 14.65234375 C-3 17 -3 17 -6 19 C-6.66 18.67 -7.32 18.34 -8 18 C-7.37793965 13.80109263 -5.93005303 10.51731506 -4 6.75 C-3.195625 5.16445312 -3.195625 5.16445312 -2.375 3.546875 C-1 1 -1 1 0 0 Z "  fill="#58A6FF" transform="translate(164,179)"/>
<path d="M0 0 C1.15941038 3.47823115 0.70820884 5.45895578 0 9 C1.11375 8.95875 2.2275 8.9175 3.375 8.875 C7 9 7 9 9 11 C8.34 11.66 7.68 12.32 7 13 C7.99 13.66 8.98 14.32 10 15 C10 15.66 10 16.32 10 17 C9.09636719 17.33773437 8.19273437 17.67546875 7.26171875 18.0234375 C6.08222656 18.46945313 4.90273438 18.91546875 3.6875 19.375 C2.51574219 19.81585938 1.34398437 20.25671875 0.13671875 20.7109375 C-3.08553593 21.91489648 -3.08553593 21.91489648 -6 24 C-8.2265625 24.046875 -8.2265625 24.046875 -10.625 23.75 C-11.42164063 23.66234375 -12.21828125 23.5746875 -13.0390625 23.484375 C-13.68617188 23.32453125 -14.33328125 23.1646875 -15 23 C-15.33 22.34 -15.66 21.68 -16 21 C-12.37 21 -8.74 21 -5 21 C-5.3403125 19.7625 -5.3403125 19.7625 -5.6875 18.5 C-6.04107911 14.53991401 -5.27467276 12.48306854 -3.76953125 8.90234375 C-2.85501938 6.64159613 -2.37582618 4.40528752 -2 2 C-1.34 2 -0.68 2 0 2 C0 1.34 0 0.68 0 0 Z "  fill="#58A6FF" transform="translate(322,179)"/>
<path d="M0 0 C1.8871875 0.061875 1.8871875 0.061875 3.8125 0.125 C6.20517398 4.31217947 7.44429645 7.2812272 6.8125 12.125 C5.03265595 15.2609157 4.28941793 15.96602736 0.8125 17.125 C-6.42194976 17.58433014 -6.42194976 17.58433014 -9.6875 15.625 C-10.1825 15.13 -10.6775 14.635 -11.1875 14.125 C-10.8575 11.485 -10.5275 8.845 -10.1875 6.125 C-9.1975 5.795 -8.2075 5.465 -7.1875 5.125 C-6.5275 7.765 -5.8675 10.405 -5.1875 13.125 C-3.03115964 13.125 -1.26303648 12.6784764 0.8125 12.125 C0.8125 9.485 0.8125 6.845 0.8125 4.125 C-1.4975 4.455 -3.8075 4.785 -6.1875 5.125 C-6.5175 4.135 -6.8475 3.145 -7.1875 2.125 C-4.09861478 0.06574319 -3.47814073 -0.1140374 0 0 Z "  fill="#58A6FF" transform="translate(317.1875,266.875)"/>
<path d="M0 0 C1.54185726 4.38212062 0.08498902 7.34589312 -1.40625 11.5625 C-2.03962925 14.16268849 -1.87694297 15.50763577 -1 18 C-5.62877994 19.34383934 -10.33465044 19.10850248 -15 18 C-16.60725635 14.78548731 -16.05748185 11.56387464 -16 8 C-14.35 7.67 -12.7 7.34 -11 7 C-10.34 9.31 -9.68 11.62 -9 14 C-7.68 14 -6.36 14 -5 14 C-5 12.02 -5 10.04 -5 8 C-6.32 7.34 -7.64 6.68 -9 6 C-8.25 3.5625 -8.25 3.5625 -7 1 C-4.50523949 -0.04618989 -2.73143089 0 0 0 Z "  fill="#58A6FF" transform="translate(319,182)"/>
<path d="M0 0 C0.66 0 1.32 0 2 0 C2.09289648 8.35399521 2.16386382 16.70777271 2.20724869 25.06215763 C2.2280769 28.94193396 2.25630607 32.82135554 2.30175781 36.70092773 C2.34538759 40.44866331 2.36917293 44.1960588 2.37950897 47.94402885 C2.38686982 49.37012519 2.40124386 50.79620403 2.42292023 52.22215462 C2.62376164 65.9883099 2.62376164 65.9883099 -2 72 C-2.66 72 -3.32 72 -4 72 C-4.33 72.99 -4.66 73.98 -5 75 C-5.33 75 -5.66 75 -6 75 C-6 72.69 -6 70.38 -6 68 C-7.65 68 -9.3 68 -11 68 C-8.7068236 64.78955305 -6.84956929 62.90497382 -3.39038086 61.14770508 C-0.81404744 59.32830853 -0.09778879 58.42649588 0.61618042 55.31259155 C0.81201207 51.79696314 0.7859079 48.34392534 0.68359375 44.82421875 C0.67368912 43.54392288 0.66378448 42.26362701 0.65357971 40.9445343 C0.62694021 37.55206443 0.55826342 34.16171607 0.48065186 30.77008057 C0.40884775 27.30469463 0.37703223 23.8389634 0.34179688 20.37304688 C0.26464264 13.58111391 0.14752421 6.79074921 0 0 Z "  fill="#58A6FF" transform="translate(238,123)"/>
<path d="M0 0 C0.33 1.65 0.66 3.3 1 5 C0.01 5.66 -0.98 6.32 -2 7 C-2.66 7.66 -3.32 8.32 -4 9 C-5.98821313 9.39764263 -7.98944339 9.73775349 -10 10 C-10 11.32 -10 12.64 -10 14 C-11.65 14.33 -13.3 14.66 -15 15 C-15.33 13.35 -15.66 11.7 -16 10 C-17.134375 9.87625 -18.26875 9.7525 -19.4375 9.625 C-21.2009375 9.315625 -21.2009375 9.315625 -23 9 C-23.33 8.34 -23.66 7.68 -24 7 C-20.7 7 -17.4 7 -14 7 C-13.34 5.68 -12.68 4.36 -12 3 C-8.42712008 -0.84771683 -4.93104201 -0.2465521 0 0 Z "  fill="#58A6FF" transform="translate(191,214)"/>
<path d="M0 0 C4.66666667 2.33333333 4.66666667 2.33333333 6 5 C6.13415472 7.6723621 6.04318541 10.32250488 6 13 C5.01 13.495 5.01 13.495 4 14 C3.505 9.05 3.505 9.05 3 4 C2.01 3.67 1.02 3.34 0 3 C0.04125 4.093125 0.0825 5.18625 0.125 6.3125 C0 10 0 10 -2 13 C-4.31 12.67 -6.62 12.34 -9 12 C-9 10.35 -9 8.7 -9 7 C-9.99 7 -10.98 7 -12 7 C-12 8.65 -12 10.3 -12 12 C-12.66 12 -13.32 12 -14 12 C-14.125 4.25 -14.125 4.25 -13 2 C-8.30183274 -1.02025038 -5.39461284 -1.37317418 0 0 Z M-5 5 C-5.99 5.495 -5.99 5.495 -7 6 C-6.67 7.65 -6.34 9.3 -6 11 C-5.01 11.33 -4.02 11.66 -3 12 C-2.34 11.34 -1.68 10.68 -1 10 C-1.08571661 7.90708843 -1.08571661 7.90708843 -2 6 C-2.99 5.67 -3.98 5.34 -5 5 Z "  fill="#58A6FF" transform="translate(326,158)"/>
<path d="M0 0 C1 3 1 3 0.375 5 C-0.25538635 7.06580855 -0.25538635 7.06580855 1.1875 8.75 C3.18185196 10.37848864 3.18185196 10.37848864 7 10 C6.01 7.36 5.02 4.72 4 2 C6.46800047 3.15173355 8.04783565 4.04783565 10 6 C10.1953125 8.8203125 10.1953125 8.8203125 10.125 12.125 C10.10695312 13.22070312 10.08890625 14.31640625 10.0703125 15.4453125 C10.04710937 16.28835938 10.02390625 17.13140625 10 18 C7.0280615 16.87548273 4.66559313 15.77706209 2 14 C2 13.34 2 12.68 2 12 C0.67741528 11.31225595 -0.65986503 10.65288627 -2 10 C-3.051875 9.484375 -4.10375 8.96875 -5.1875 8.4375 C-8.72533662 6.91257042 -12.06182245 6.53278838 -15.88671875 6.30859375 C-18.25118069 5.96332112 -19.92795281 5.16464955 -22 4 C-22 3.01 -22 2.02 -22 1 C-20.68 1 -19.36 1 -18 1 C-17.67 1.66 -17.34 2.32 -17 3 C-14.66255706 3.46806645 -12.30260921 3.82669794 -9.9375 4.125 C-8.64714844 4.29257812 -7.35679687 4.46015625 -6.02734375 4.6328125 C-5.02832031 4.75398438 -4.02929688 4.87515625 -3 5 C-2.01 3.35 -1.02 1.7 0 0 Z "  fill="#58A6FF" transform="translate(212,300)"/>
<path d="M0 0 C1.33417969 0.14888672 1.33417969 0.14888672 2.6953125 0.30078125 C4.875 0.6875 4.875 0.6875 5.875 1.6875 C6.15840496 4.61601788 6.35791138 6.84116351 5.875 9.6875 C3.9375 11.875 3.9375 11.875 0.875 12.6875 C-2.27077427 12.01415701 -5.16831711 10.94360711 -8.125 9.6875 C-8.41796875 3.6328125 -8.41796875 3.6328125 -8.125 1.6875 C-4.70111192 -0.59509205 -3.92305495 -0.47465534 0 0 Z M-3.125 4.6875 C-2.795 5.6775 -2.465 6.6675 -2.125 7.6875 C-1.465 7.6875 -0.805 7.6875 -0.125 7.6875 C-0.125 6.6975 -0.125 5.7075 -0.125 4.6875 C-1.115 4.6875 -2.105 4.6875 -3.125 4.6875 Z "  fill="#58A6FF" transform="translate(311.125,214.3125)"/>
<path d="M0 0 C0 0.99 0 1.98 0 3 C6.93 3 13.86 3 21 3 C21 3.99 21 4.98 21 6 C19.9644397 6.08302368 19.9644397 6.08302368 18.90795898 6.16772461 C15.75095586 6.42209536 12.59423062 6.6797704 9.4375 6.9375 C8.35146484 7.02451172 7.26542969 7.11152344 6.14648438 7.20117188 C0.73140286 7.64557066 -4.6335783 8.14537617 -10 9 C-10 9.66 -10 10.32 -10 11 C-10.66 11 -11.32 11 -12 11 C-12 9.35 -12 7.7 -12 6 C-11.0925 5.566875 -10.185 5.13375 -9.25 4.6875 C-6.07225128 3.15019164 -6.07225128 3.15019164 -3.75 1.3125 C-2 0 -2 0 0 0 Z "  fill="#58A6FF" transform="translate(198,254)"/>
<path d="M0 0 C0.33 0.99 0.66 1.98 1 3 C1.33 3 1.66 3 2 3 C2.12375 3.804375 2.2475 4.60875 2.375 5.4375 C2.58125 6.283125 2.7875 7.12875 3 8 C3.66 8.33 4.32 8.66 5 9 C5 8.01 5 7.02 5 6 C8.82097239 6.53069061 11.06171403 7.49701566 14 10 C9.25 9.125 9.25 9.125 7 8 C6.30132812 9.07121094 5.60265625 10.14242187 4.8828125 11.24609375 C3.96378565 12.64338967 3.04450147 14.04051636 2.125 15.4375 C1.66480469 16.14455078 1.20460938 16.85160156 0.73046875 17.58007812 C0.28574219 18.25361328 -0.15898437 18.92714844 -0.6171875 19.62109375 C-1.02565918 20.2442749 -1.43413086 20.86745605 -1.85498047 21.50952148 C-3 23 -3 23 -5 24 C-3.99806563 20.20696275 -3.18975773 17.28463659 -1 14 C-0.34 14 0.32 14 1 14 C0.814375 13.38125 0.62875 12.7625 0.4375 12.125 C0 10 0 10 1 8 C-0.32 8.33 -1.64 8.66 -3 9 C-3 9.66 -3 10.32 -3 11 C-4 12 -5 13 -6 14 C-6.639375 14.969375 -7.27875 15.93875 -7.9375 16.9375 C-9.77057055 19.65933204 -11.60625174 21.77723376 -14 24 C-14.66 23.67 -15.32 23.34 -16 23 C-13.52258268 19.35297507 -11.04277484 15.70758206 -8.5625 12.0625 C-7.85544922 11.02158203 -7.14839844 9.98066406 -6.41992188 8.90820312 C-5.40961914 7.42416992 -5.40961914 7.42416992 -4.37890625 5.91015625 C-3.7557251 4.99371338 -3.13254395 4.07727051 -2.49047852 3.13305664 C-1 1 -1 1 0 0 Z "  fill="#58A6FF" transform="translate(293,136)"/>
<path d="M0 0 C8.16530404 3.06412877 8.16530404 3.06412877 11.0625 6.3125 C12.28318191 9.81178816 12.46050396 12.31596829 12 16 C10.20437595 18.75329021 8.94745078 20.52627461 6 22 C3.3276379 22.13415472 0.67749512 22.04318541 -2 22 C-2.99 19.69 -3.98 17.38 -5 15 C-4.31292969 15.01160156 -3.62585938 15.02320313 -2.91796875 15.03515625 C-1.56638672 15.04869141 -1.56638672 15.04869141 -0.1875 15.0625 C1.15248047 15.07990234 1.15248047 15.07990234 2.51953125 15.09765625 C5.13413791 15.11009967 5.13413791 15.11009967 8 14 C8.08004482 10.4780279 8.04005702 7.38018531 7 4 C4.69 3.34 2.38 2.68 0 2 C0 1.34 0 0.68 0 0 Z "  fill="#58A6FF" transform="translate(211,143)"/>
<path d="M0 0 C0.66 0 1.32 0 2 0 C2.19916016 1.06541016 2.19916016 1.06541016 2.40234375 2.15234375 C2.57894531 3.07144531 2.75554687 3.99054688 2.9375 4.9375 C3.11152344 5.85402344 3.28554688 6.77054687 3.46484375 7.71484375 C3.77714988 9.95289844 3.77714988 9.95289844 5 11 C4.60246179 12.46366342 4.18118616 13.9208935 3.75 15.375 C3.51796875 16.18710937 3.2859375 16.99921875 3.046875 17.8359375 C1.7785108 20.45785454 0.67576692 20.99382318 -2 22 C-2 22.66 -2 23.32 -2 24 C-2.66 24 -3.32 24 -4 24 C-3.67 22.02 -3.34 20.04 -3 18 C-4.32 18.33 -5.64 18.66 -7 19 C-7 17.02 -7 15.04 -7 13 C-8.093125 13.0825 -9.18625 13.165 -10.3125 13.25 C-14 13 -14 13 -15.9375 11 C-16.288125 10.34 -16.63875 9.68 -17 9 C-16.2575 9.495 -16.2575 9.495 -15.5 10 C-11.25095174 11.6996193 -6.86429967 11.66923578 -2.5625 10.125 C-0.84106726 9.06925899 -0.84106726 9.06925899 0 7 C0.04022391 4.6670134 0.04320247 2.33293334 0 0 Z "  fill="#58A6FF" transform="translate(323,272)"/>
<path d="M0 0 C0.33 0 0.66 0 1 0 C1.309375 1.134375 1.61875 2.26875 1.9375 3.4375 C2.62924531 6.78775099 2.62924531 6.78775099 4 8 C3.61140641 11.49734228 3.11403913 14.65788261 2 18 C1.91821886 19.70016844 1.89250499 21.40336297 1.90234375 23.10546875 C1.90556641 24.08837891 1.90878906 25.07128906 1.91210938 26.08398438 C1.92048828 27.10814453 1.92886719 28.13230469 1.9375 29.1875 C1.94201172 30.22326172 1.94652344 31.25902344 1.95117188 32.32617188 C1.9629599 34.88417266 1.97941485 37.44205733 2 40 C2.33 40 2.66 40 3 40 C4.5056904 45.80766296 5.21824777 50.9981863 5 57 C6.32 57.66 7.64 58.32 9 59 C9 58.34 9 57.68 9 57 C10.98 57 12.96 57 15 57 C14.443125 57.226875 13.88625 57.45375 13.3125 57.6875 C10.77784543 58.98466965 10.77784543 58.98466965 8.4375 61.625 C6 64 6 64 3 64 C2.6860122 62.00023304 2.37389057 60.00017303 2.0625 58 C1.80146484 56.329375 1.80146484 56.329375 1.53515625 54.625 C1.35855469 53.42875 1.18195313 52.2325 1 51 C0.81695312 49.80761719 0.63390625 48.61523438 0.4453125 47.38671875 C-0.26581704 41.54997007 -0.18421074 35.68382393 -0.1875 29.8125 C-0.19974609 28.65041016 -0.21199219 27.48832031 -0.22460938 26.29101562 C-0.22654297 25.17017578 -0.22847656 24.04933594 -0.23046875 22.89453125 C-0.23457764 21.88237549 -0.23868652 20.87021973 -0.24291992 19.82739258 C0.01207146 16.85949792 0.84065086 14.72214124 2 12 C1.66641914 9.66493401 1.05310196 8.10620392 0 6 C-0.039992 4.00039988 -0.04346799 1.99952758 0 0 Z "  fill="#58A6FF" transform="translate(252,113)"/>
<path d="M0 0 C0.66 0 1.32 0 2 0 C1.47731534 2.76276177 0.89130413 5.3260876 0 8 C-0.66 8 -1.32 8 -2 8 C-1.93039063 8.95261719 -1.86078125 9.90523437 -1.7890625 10.88671875 C-1.35756462 20.88308621 -1.35756462 20.88308621 -3.1953125 24.078125 C-4.75 25.4375 -4.75 25.4375 -8 27 C-10.375 26.8125 -10.375 26.8125 -12 26 C-10.68 25.67 -9.36 25.34 -8 25 C-8.05800781 23.89140625 -8.11601562 22.7828125 -8.17578125 21.640625 C-8.22268829 20.17712548 -8.26818745 18.71358037 -8.3125 17.25 C-8.35439453 16.52039063 -8.39628906 15.79078125 -8.43945312 15.0390625 C-8.48828125 12.890625 -8.48828125 12.890625 -8 9 C-5.5859375 6.65625 -5.5859375 6.65625 -3 5 C-1.98343919 3.34338239 -0.97934924 1.67888441 0 0 Z "  fill="#58A6FF" transform="translate(199,232)"/>
<path d="M0 0 C0.33 0 0.66 0 1 0 C1 4.29 1 8.58 1 13 C2.50433594 12.91621094 4.00867188 12.83242187 5.55859375 12.74609375 C7.5182148 12.6429558 9.47785103 12.54010605 11.4375 12.4375 C12.43072266 12.38142578 13.42394531 12.32535156 14.44726562 12.26757812 C15.39150391 12.21923828 16.33574219 12.17089844 17.30859375 12.12109375 C18.18314209 12.0739624 19.05769043 12.02683105 19.95874023 11.97827148 C22 12 22 12 23 13 C23.07205511 14.68608966 23.08386068 16.37500659 23.0625 18.0625 C23.05347656 18.98160156 23.04445312 19.90070313 23.03515625 20.84765625 C23.02355469 21.55792969 23.01195312 22.26820313 23 23 C22.23034912 22.99363525 21.46069824 22.98727051 20.66772461 22.98071289 C5.43805618 22.94313689 -6.77121974 23.05858489 -20 31 C-20.66 31 -21.32 31 -22 31 C-22.33 30.01 -22.66 29.02 -23 28 C-22.236875 27.87625 -21.47375 27.7525 -20.6875 27.625 C-17.79732864 27.11897208 -17.79732864 27.11897208 -15 25 C-13.68 25 -12.36 25 -11 25 C-11 24.01 -11 23.02 -11 22 C-3.713573 20.96564916 3.22372428 21.05264558 10.5625 21.4375 C11.66658203 21.48970703 12.77066406 21.54191406 13.90820312 21.59570312 C16.60584136 21.72416209 19.3029899 21.85906133 22 22 C22 19.36 22 16.72 22 14 C14.74 14 7.48 14 0 14 C0 9.38 0 4.76 0 0 Z "  fill="#58A6FF" transform="translate(199,241)"/>
<path d="M0 0 C0.45890625 0.39832031 0.9178125 0.79664063 1.390625 1.20703125 C4.52271585 3.91142062 7.63877459 6.57991771 11 9 C10.030625 9.556875 9.06125 10.11375 8.0625 10.6875 C4.81008721 12.68035805 4.81008721 12.68035805 4.125 15.75 C4.08375 16.4925 4.0425 17.235 4 18 C3.34 17.67 2.68 17.34 2 17 C2 16.34 2 15.68 2 15 C1.38125 14.7525 0.7625 14.505 0.125 14.25 C-2.35068687 12.79371361 -2.95125002 11.62187494 -4 9 C-4.66 9 -5.32 9 -6 9 C-6.66 8.01 -7.32 7.02 -8 6 C-9.92441415 5.49468134 -9.92441415 5.49468134 -12.1328125 5.48828125 C-13.34130859 5.43510742 -13.34130859 5.43510742 -14.57421875 5.38085938 C-15.41597656 5.35830078 -16.25773438 5.33574219 -17.125 5.3125 C-17.97449219 5.27833984 -18.82398438 5.24417969 -19.69921875 5.20898438 C-21.79901105 5.12640827 -23.89948564 5.06153022 -26 5 C-26 4.67 -26 4.34 -26 4 C-24.75863281 3.93941406 -23.51726562 3.87882813 -22.23828125 3.81640625 C-20.59634423 3.73196377 -18.95441768 3.64731764 -17.3125 3.5625 C-16.08756836 3.50352539 -16.08756836 3.50352539 -14.83789062 3.44335938 C-10.80344189 3.23101997 -6.94252691 2.95552078 -3 2 C-3.33 3.98 -3.66 5.96 -4 8 C-3.34 8 -2.68 8 -2 8 C-2 8.66 -2 9.32 -2 10 C-0.68 10 0.64 10 2 10 C2.33 8.35 2.66 6.7 3 5 C2.01 4.67 1.02 4.34 0 4 C0 2.68 0 1.36 0 0 Z "  fill="#58A6FF" transform="translate(218,180)"/>
<path d="M0 0 C2.47472217 1.67927576 2.9320213 2.68276607 3.5625 5.625 C3.706875 6.40875 3.85125 7.1925 4 8 C4.66 8.33 5.32 8.66 6 9 C6.625 12.0625 6.625 12.0625 7 15 C3 15 3 15 1 14 C1 13.34 1 12.68 1 12 C0.34 12 -0.32 12 -1 12 C-1 10.35 -1 8.7 -1 7 C-2.01126953 7.26103516 -2.01126953 7.26103516 -3.04296875 7.52734375 C-6.58498188 8.09350437 -9.74094434 7.86291122 -13.3125 7.5625 C-14.56675781 7.46066406 -15.82101563 7.35882813 -17.11328125 7.25390625 C-18.06589844 7.17011719 -19.01851562 7.08632812 -20 7 C-20 6.67 -20 6.34 -20 6 C-13.565 5.505 -13.565 5.505 -7 5 C-7 3.68 -7 2.36 -7 1 C-4.45132831 -0.27433584 -2.82594567 -0.27570202 0 0 Z "  fill="#58A6FF" transform="translate(215,176)"/>
<path d="M0 0 C2.49552403 2.27597646 4.06622986 4.60721178 5.6875 7.5625 C6.12449219 8.34753906 6.56148437 9.13257813 7.01171875 9.94140625 C8 12 8 12 8 14 C10.01822917 13.90234375 12.03645833 13.8046875 14.0546875 13.70703125 C14.69664062 13.80371094 15.33859375 13.90039062 16 14 C18 17 18 17 18 21 C21.63 21.33 25.26 21.66 29 22 C29.33 20.68 29.66 19.36 30 18 C30 19.65 30 21.3 30 23 C28.92621094 23.06058594 27.85242188 23.12117188 26.74609375 23.18359375 C25.30988685 23.26807651 23.87368942 23.35272054 22.4375 23.4375 C21.73302734 23.47681641 21.02855469 23.51613281 20.30273438 23.55664062 C15.8201459 23.82518279 11.43706503 24.30616197 7 25 C6.875 22.625 6.875 22.625 7 20 C7.66 19.34 8.32 18.68 9 18 C10.32 18 11.64 18 13 18 C13.33 18.99 13.66 19.98 14 21 C14.33 19.35 14.66 17.7 15 16 C13.7625 16.0825 12.525 16.165 11.25 16.25 C8.04840914 16.25 7.18502728 16.1263601 4.4375 14.25 C3 12 3 12 3.25 9.75 C3.4975 9.1725 3.745 8.595 4 8 C3.34 8 2.68 8 2 8 C1.34 5.36 0.68 2.72 0 0 Z M8 20 C8 20.99 8 21.98 8 23 C9.32 23 10.64 23 12 23 C12 22.01 12 21.02 12 20 C10.68 20 9.36 20 8 20 Z "  fill="#58A6FF" transform="translate(176,275)"/>
<path d="M0 0 C0.66 0.66 1.32 1.32 2 2 C4.1894648 2.61350042 6.40231857 3.14559812 8.625 3.625 C9.81351563 3.88539063 11.00203125 4.14578125 12.2265625 4.4140625 C13.14179688 4.60742188 14.05703125 4.80078125 15 5 C15 6.98 15 8.96 15 11 C14.34 11 13.68 11 13 11 C13 9.68 13 8.36 13 7 C11.02 7.33 9.04 7.66 7 8 C7.66 9.65 8.32 11.3 9 13 C10.98 13 12.96 13 15 13 C14.01 13.495 14.01 13.495 13 14 C13 14.99 13 15.98 13 17 C9.6875 17.25 9.6875 17.25 6 17 C4.0625 15.3125 4.0625 15.3125 3 13 C2.8125 10.25 2.8125 10.25 3 8 C2.34 8 1.68 8 1 8 C1 6.68 1 5.36 1 4 C0.34 4 -0.32 4 -1 4 C-0.67 2.68 -0.34 1.36 0 0 Z "  fill="#58A6FF" transform="translate(176,169)"/>
<path d="M0 0 C1.98828125 0.75 1.98828125 0.75 3.2578125 2.8125 C3.49886719 3.451875 3.73992187 4.09125 3.98828125 4.75 C2.03515625 4.22916667 0.08203125 3.70833333 -1.87109375 3.1875 C-4.30073736 2.61650651 -4.30073736 2.61650651 -8.01171875 2.75 C-8.34171875 4.4 -8.67171875 6.05 -9.01171875 7.75 C-8.43421875 7.42 -7.85671875 7.09 -7.26171875 6.75 C-5.01171875 5.75 -5.01171875 5.75 -1.01171875 5.75 C-0.68171875 7.73 -0.35171875 9.71 -0.01171875 11.75 C-0.81609375 12.03875 -1.62046875 12.3275 -2.44921875 12.625 C-5.14436555 13.48262568 -5.14436555 13.48262568 -6.01171875 15.75 C-4.03171875 15.75 -2.05171875 15.75 -0.01171875 15.75 C-0.01171875 16.08 -0.01171875 16.41 -0.01171875 16.75 C-5.16775674 17.2656038 -5.16775674 17.2656038 -8.01171875 16.75 C-11.0881432 13.59666494 -11.90116419 11.46246273 -12.57421875 7.125 C-12.01171875 3.75 -12.01171875 3.75 -10.07421875 1.25 C-6.34929404 -0.57445292 -4.04034923 -0.43459219 0 0 Z M-4.01171875 6.75 C-4.34171875 8.07 -4.67171875 9.39 -5.01171875 10.75 C-4.02171875 10.75 -3.03171875 10.75 -2.01171875 10.75 C-2.01171875 9.76 -2.01171875 8.77 -2.01171875 7.75 C-2.67171875 7.42 -3.33171875 7.09 -4.01171875 6.75 Z "  fill="#58A6FF" transform="translate(265.01171875,107.25)"/>
<path d="M0 0 C0 0.99 0 1.98 0 3 C-0.474375 3.4125 -0.94875 3.825 -1.4375 4.25 C-3.78147173 6.87524834 -3.67783296 9.58502942 -4 13 C-4.66 13 -5.32 13 -6 13 C-6.33 13.66 -6.66 14.32 -7 15 C-7.495 14.01 -7.495 14.01 -8 13 C-8.33 13.99 -8.66 14.98 -9 16 C-9 15.34 -9 14.68 -9 14 C-10.03930664 13.9906543 -11.07861328 13.98130859 -12.14941406 13.97167969 C-16.01133838 13.93175877 -19.8724678 13.86599522 -23.73388672 13.79248047 C-25.40403011 13.76428282 -27.07430665 13.74306221 -28.74462891 13.72900391 C-31.14815372 13.70755663 -33.55007983 13.66090155 -35.953125 13.609375 C-36.69806213 13.60814636 -37.44299927 13.60691772 -38.21051025 13.60565186 C-41.81987375 13.50403958 -43.66104995 13.2760003 -46.50292969 10.96191406 C-46.99696289 10.31448242 -47.49099609 9.66705078 -48 9 C-47.43796875 9.144375 -46.8759375 9.28875 -46.296875 9.4375 C-39.6905455 10.89656664 -33.29918526 11.19236228 -26.5625 11.1875 C-25.68625977 11.18814453 -24.81001953 11.18878906 -23.90722656 11.18945312 C-19.30396818 11.19130505 -19.30396818 11.19130505 -14.78881836 10.42700195 C-14.1985083 10.28609131 -13.60819824 10.14518066 -13 10 C-12.505 10.495 -12.505 10.495 -12 11 C-11.67 10.34 -11.34 9.68 -11 9 C-10.34 9 -9.68 9 -9 9 C-9 8.01 -9 7.02 -9 6 C-8.34 6 -7.68 6 -7 6 C-7 5.34 -7 4.68 -7 4 C-6.21625 3.71125 -5.4325 3.4225 -4.625 3.125 C-1.90328368 2.15087746 -1.90328368 2.15087746 0 0 Z "  fill="#58A6FF" transform="translate(333,241)"/>
<path d="M0 0 C7.59 0 15.18 0 23 0 C23 2.64 23 5.28 23 8 C19.04172765 8.05785647 15.0835633 8.09354717 11.125 8.125 C9.99707031 8.14175781 8.86914062 8.15851563 7.70703125 8.17578125 C6.09248047 8.18544922 6.09248047 8.18544922 4.4453125 8.1953125 C2.95281982 8.21102295 2.95281982 8.21102295 1.43017578 8.22705078 C-1 8 -1 8 -3 6 C5.02332397 5.09958689 12.92970447 4.88452677 21 5 C21 4.01 21 3.02 21 2 C14.07 2 7.14 2 0 2 C0 1.34 0 0.68 0 0 Z "  fill="#58A6FF" transform="translate(198,255)"/>
<path d="M0 0 C0.86625 0.495 0.86625 0.495 1.75 1 C4.19883862 2.27075898 4.19883862 2.27075898 8 2 C8.268125 2.763125 8.53625 3.52625 8.8125 4.3125 C9.76215255 6.98913874 9.76215255 6.98913874 11.53076172 8.30078125 C13.63898262 10.73900283 13.50878003 12.68787602 13.6953125 15.875 C13.77136719 17.02484375 13.84742188 18.1746875 13.92578125 19.359375 C13.99152344 20.56078125 14.05726563 21.7621875 14.125 23 C14.27026415 25.37519621 14.41856019 27.7502095 14.5703125 30.125 C14.62977051 31.17945313 14.68922852 32.23390625 14.75048828 33.3203125 C14.90702026 36.09924778 14.90702026 36.09924778 16 39 C14.515 39.495 14.515 39.495 13 40 C13 40.66 13 41.32 13 42 C12.21625 42.0825 11.4325 42.165 10.625 42.25 C7.88368661 42.70995268 7.88368661 42.70995268 6.875 44.875 C6.58625 45.57625 6.2975 46.2775 6 47 C4.75 48.75 4.75 48.75 3 50 C-0.1875 50.1875 -0.1875 50.1875 -3 50 C-0.58548565 47.42451803 1.55713828 45.28059178 4.55859375 43.37890625 C10.15914158 39.73052507 10.15914158 39.73052507 12.6796875 33.79296875 C12.68773224 30.14467876 12.37847117 26.62701535 12 23 C12.04125 21.9378125 12.0825 20.875625 12.125 19.78125 C12.23015814 14.68108036 11.87706921 12.02279345 8.484375 8.06640625 C5.80019638 5.52966161 2.90272139 3.28105124 0 1 C0 0.67 0 0.34 0 0 Z "  fill="#58A6FF" transform="translate(270,267)"/>
<path d="M0 0 C1.875 0.6875 1.875 0.6875 4 2 C4.72159424 3.64363134 5.39351421 5.31050386 6 7 C6.66 7.33 7.32 7.66 8 8 C8 7.01 8 6.02 8 5 C9.32 4.67 10.64 4.34 12 4 C11.67 5.32 11.34 6.64 11 8 C12.32 8.66 13.64 9.32 15 10 C15 10.66 15 11.32 15 12 C17.64 12 20.28 12 23 12 C23.625 13.875 23.625 13.875 24 16 C23.34 16.66 22.68 17.32 22 18 C21.67 16.68 21.34 15.36 21 14 C19.02 14.66 17.04 15.32 15 16 C15 15.34 15 14.68 15 14 C14.41992188 14.04382813 13.83984375 14.08765625 13.2421875 14.1328125 C10.53581666 14.12388058 8.55410139 13.93027433 6 13 C2.66672003 9.2290166 0 5.10843813 0 0 Z "  fill="#58A6FF" transform="translate(168,279)"/>
<path d="M0 0 C0.33 0 0.66 0 1 0 C1 33.66 1 67.32 1 102 C-3 100 -3 100 -4 98 C-2.68 98.33 -1.36 98.66 0 99 C0 66.33 0 33.66 0 0 Z "  fill="#58A6FF" transform="translate(240,232)"/>
<path d="M0 0 C0.66 0 1.32 0 2 0 C2 31.35 2 62.7 2 95 C1.67 95 1.34 95 1 95 C-0.15623145 84.55286586 -0.12917301 74.16510079 -0.09765625 63.671875 C-0.0957873 61.82814574 -0.09436565 59.98441597 -0.09336853 58.14068604 C-0.08958087 53.3272358 -0.07978335 48.51381655 -0.06866455 43.70037842 C-0.05836905 38.77291279 -0.0538536 33.84544207 -0.04882812 28.91796875 C-0.0381571 19.27863235 -0.02112667 9.63931877 0 0 Z "  fill="#58A6FF" transform="translate(255,200)"/>
<path d="M0 0 C5.41538462 -0.36923077 5.41538462 -0.36923077 8.375 1.5 C8.91125 1.995 9.4475 2.49 10 3 C9.34 4.32 8.68 5.64 8 7 C6.63875 6.9690625 6.63875 6.9690625 5.25 6.9375 C1.51840002 6.98916918 1.51840002 6.98916918 -2 8 C-2.33 8.99 -2.66 9.98 -3 11 C-5.0625 11.6875 -5.0625 11.6875 -7 12 C-7 12.66 -7 13.32 -7 14 C-9.8125 15.5625 -9.8125 15.5625 -13 17 C-13.99 16.67 -14.98 16.34 -16 16 C-14.6875 14.5 -14.6875 14.5 -13 13 C-12.01 13 -11.02 13 -10 13 C-10 12.34 -10 11.68 -10 11 C-9.360625 10.87625 -8.72125 10.7525 -8.0625 10.625 C-7.381875 10.41875 -6.70125 10.2125 -6 10 C-5.67 9.34 -5.34 8.68 -5 8 C-4.34 8 -3.68 8 -3 8 C-2.67 6.68 -2.34 5.36 -2 4 C-2.66 3.67 -3.32 3.34 -4 3 C-3.01 3 -2.02 3 -1 3 C-0.67 2.01 -0.34 1.02 0 0 Z "  fill="#58A6FF" transform="translate(224,116)"/>
<path d="M0 0 C2.3770869 0.59427173 4.67193862 1.24577787 7 2 C7.72960937 2.23332031 8.45921875 2.46664062 9.2109375 2.70703125 C11.48145847 3.60458376 13.15984759 4.38763344 15 6 C16.09828777 9.02029136 16.40633341 11.81089836 16 15 C15.34 15.66 14.68 16.32 14 17 C10.75267068 15.37633534 10.29844864 12.24612161 9 9 C8.01 9.33 7.02 9.66 6 10 C5.67 8.68 5.34 7.36 5 6 C3.35 6 1.7 6 0 6 C0 4.02 0 2.04 0 0 Z "  fill="#58A6FF" transform="translate(150,218)"/>
<path d="M0 0 C1.32 0.33 2.64 0.66 4 1 C4 4.3 4 7.6 4 11 C3.01 11.495 3.01 11.495 2 12 C1.01 11.67 0.02 11.34 -1 11 C-1 11.99 -1 12.98 -1 14 C-3.64 14 -6.28 14 -9 14 C-9.33 12.68 -9.66 11.36 -10 10 C-10.66 10 -11.32 10 -12 10 C-12 8.02 -12 6.04 -12 4 C-11.01 4 -10.02 4 -9 4 C-9 5.65 -9 7.3 -9 9 C-6.69 9 -4.38 9 -2 9 C-1.34 6.03 -0.68 3.06 0 0 Z "  fill="#58A6FF" transform="translate(326,161)"/>
<path d="M0 0 C2.22309696 2.55244466 2.58725894 4.6029246 2.86328125 7.93359375 C2.58003664 11.16258229 0.97866235 12.77726121 -1.3125 14.9375 C-3.77201456 16.16725728 -5.09506624 15.95218511 -7.8125 15.6875 C-8.6065625 15.62046875 -9.400625 15.5534375 -10.21875 15.484375 C-12.3125 14.9375 -12.3125 14.9375 -14.3125 11.9375 C-15.0975372 8.93556197 -15.45835704 6.03976706 -15.3125 2.9375 C-11.27707808 -2.82738846 -6.06526237 -2.78674217 0 0 Z M-13.3125 2.9375 C-13.67547936 4.91497122 -13.67547936 4.91497122 -13.5 7.0625 C-13.438125 8.34125 -13.37625 9.62 -13.3125 10.9375 C-7.44251373 13.52956252 -7.44251373 13.52956252 -1.25 13.125 C0.96160602 10.62802546 0.9771494 9.96050923 1 6.75 C0.896875 5.491875 0.79375 4.23375 0.6875 2.9375 C-4.44558707 0.52192961 -8.44495057 -0.30753295 -13.3125 2.9375 Z "  fill="#58A6FF" transform="translate(316.3125,213.0625)"/>
<path d="M0 0 C5.75 -0.125 5.75 -0.125 8 1 C8 3.31 8 5.62 8 8 C9.65 7.67 11.3 7.34 13 7 C13 7.66 13 8.32 13 9 C13.66 9 14.32 9 15 9 C15 10.32 15 11.64 15 13 C7.25954198 13.29770992 7.25954198 13.29770992 4 11 C2.734375 8.3984375 2.734375 8.3984375 1.75 5.375 C1.41484375 4.37210937 1.0796875 3.36921875 0.734375 2.3359375 C0.49203125 1.56507813 0.2496875 0.79421875 0 0 Z "  fill="#58A6FF" transform="translate(175,292)"/>
<path d="M0 0 C1.17829199 2.35658397 1.04414372 3.52573236 0.87890625 6.1328125 C0.83056641 6.93847656 0.78222656 7.74414062 0.73242188 8.57421875 C0.67634766 9.41597656 0.62027344 10.25773438 0.5625 11.125 C0.51029297 11.97449219 0.45808594 12.82398438 0.40429688 13.69921875 C0.27448622 15.79979124 0.1378826 17.89994191 0 20 C-0.99 20.33 -1.98 20.66 -3 21 C-4.22969878 24.51190809 -4.22969878 24.51190809 -5 28 C-4.34 28.33 -3.68 28.66 -3 29 C-4.65 29.33 -6.3 29.66 -8 30 C-8.33 29.34 -8.66 28.68 -9 28 C-12.3 28 -15.6 28 -19 28 C-18 25 -18 25 -15.41796875 23.68359375 C-14.35191406 23.27238281 -13.28585938 22.86117188 -12.1875 22.4375 C-8.71043783 21.07801528 -5.30688677 19.73751678 -2 18 C-1.90912109 16.17662109 -1.90912109 16.17662109 -1.81640625 14.31640625 C-1.73201668 12.73175772 -1.6473679 11.14712298 -1.5625 9.5625 C-1.52318359 8.76005859 -1.48386719 7.95761719 -1.44335938 7.13085938 C-1.11328125 1.11328125 -1.11328125 1.11328125 0 0 Z "  fill="#58A6FF" transform="translate(191,237)"/>
<path d="M0 0 C0.33 0.66 0.66 1.32 1 2 C0.34 2 -0.32 2 -1 2 C-1.33498301 4.33165034 -1.33498301 4.33165034 -1 7 C-0.34 7.5878125 0.32 8.175625 1 8.78125 C3.64677406 11.71751497 3.41888365 13.36567615 3.25 17.25 C3.21390625 18.32765625 3.1778125 19.4053125 3.140625 20.515625 C3.07101563 21.74539063 3.07101563 21.74539063 3 23 C2.34 22.67 1.68 22.34 1 22 C0.60689586 19.67711188 0.49250305 17.38154824 0.34375 15.03125 C0.2303125 14.3609375 0.116875 13.690625 0 13 C-0.66 12.67 -1.32 12.34 -2 12 C-1.938125 13.11375 -1.87625 14.2275 -1.8125 15.375 C-1.874375 16.57125 -1.93625 17.7675 -2 19 C-5 21 -5 21 -7.625 20.6875 C-10 20 -10 20 -11 19 C-11.25 16.5625 -11.25 16.5625 -11 14 C-8.08235 12.0549 -6.37462715 11.54723683 -3 11 C-2.67 10.01 -2.34 9.02 -2 8 C-2.66 8 -3.32 8 -4 8 C-4 5.69 -4 3.38 -4 1 C-2.68 0.67 -1.36 0.34 0 0 Z M-8 13 C-8.66 13.66 -9.32 14.32 -10 15 C-9.6814823 17.10820797 -9.6814823 17.10820797 -9 19 C-7.35 18.67 -5.7 18.34 -4 18 C-3.7763932 15.0745356 -3.7763932 15.0745356 -5 13 C-5.99 13 -6.98 13 -8 13 Z "  fill="#58A6FF" transform="translate(169,239)"/>
<path d="M0 0 C0.88751953 0.19529297 0.88751953 0.19529297 1.79296875 0.39453125 C1.79296875 1.05453125 1.79296875 1.71453125 1.79296875 2.39453125 C2.45296875 2.39453125 3.11296875 2.39453125 3.79296875 2.39453125 C3.79296875 3.05453125 3.79296875 3.71453125 3.79296875 4.39453125 C2.47296875 4.72453125 1.15296875 5.05453125 -0.20703125 5.39453125 C-0.53703125 6.71453125 -0.86703125 8.03453125 -1.20703125 9.39453125 C-1.86703125 9.06453125 -2.52703125 8.73453125 -3.20703125 8.39453125 C-2.87703125 7.40453125 -2.54703125 6.41453125 -2.20703125 5.39453125 C-3.19703125 5.88953125 -3.19703125 5.88953125 -4.20703125 6.39453125 C-4.20703125 7.38453125 -4.20703125 8.37453125 -4.20703125 9.39453125 C-4.86703125 9.39453125 -5.52703125 9.39453125 -6.20703125 9.39453125 C-6.20703125 8.40453125 -6.20703125 7.41453125 -6.20703125 6.39453125 C-7.52703125 6.39453125 -8.84703125 6.39453125 -10.20703125 6.39453125 C-10.20703125 8.37453125 -10.20703125 10.35453125 -10.20703125 12.39453125 C-12.20703125 10.39453125 -12.20703125 10.39453125 -12.64453125 7.58203125 C-12.20703125 4.39453125 -12.20703125 4.39453125 -10.26953125 1.45703125 C-6.4018251 -1.14775044 -4.44463446 -0.77581711 0 0 Z "  fill="#58A6FF" transform="translate(265.20703125,187.60546875)"/>
<path d="M0 0 C5.61 0.33 11.22 0.66 17 1 C16.67 1.66 16.34 2.32 16 3 C15.31292969 2.95359375 14.62585938 2.9071875 13.91796875 2.859375 C13.01691406 2.82328125 12.11585938 2.7871875 11.1875 2.75 C9.84751953 2.68039063 9.84751953 2.68039063 8.48046875 2.609375 C5.87173028 2.76940327 5.87173028 2.76940327 4.19140625 4.82421875 C2.6136447 7.70557346 2.72417644 9.75907317 3 13 C3.33 13.99 3.66 14.98 4 16 C3.01 16 2.02 16 1 16 C1 16.99 1 17.98 1 19 C0.01 18.67 -0.98 18.34 -2 18 C-2.3721042 16.67696283 -2.70630173 15.34262065 -3 14 C-3.66 13.67 -4.32 13.34 -5 13 C-4.525625 12.46375 -4.05125 11.9275 -3.5625 11.375 C-1.72112769 8.57611409 -1.50933262 6.27428111 -1 3 C-0.34 2.67 0.32 2.34 1 2 C0.67 1.34 0.34 0.68 0 0 Z "  fill="#58A6FF" transform="translate(297,126)"/>
<path d="M0 0 C1 1 1 1 1.25 4.875 C1.20006601 7.40801531 1.13648888 8.74307975 -0.0625 11 C-3.02087678 12.52690415 -5.73716599 12.18468872 -9 12 C-8.67 11.01 -8.34 10.02 -8 9 C-6.35 8.67 -4.7 8.34 -3 8 C-3.33 6.02 -3.66 4.04 -4 2 C-6.64 2.66 -9.28 3.32 -12 4 C-11.67 2.35 -11.34 0.7 -11 -1 C-6.9957278 -2.60170888 -3.94674464 -1.34040384 0 0 Z "  fill="#58A6FF" transform="translate(268,111)"/>
<path d="M0 0 C3.875 1.875 3.875 1.875 5 3 C7.69235776 3.23678716 10.36498156 3.42198025 13.0625 3.5625 C14.20041992 3.62727539 14.20041992 3.62727539 15.36132812 3.69335938 C17.24065438 3.79973633 19.12030244 3.90039934 21 4 C21 6.97 21 9.94 21 13 C17.37 13 13.74 13 10 13 C10 11.68 10 10.36 10 9 C9.34 8.34 8.68 7.68 8 7 C8.33 6.67 8.66 6.34 9 6 C8.071875 5.7525 7.14375 5.505 6.1875 5.25 C2.83541675 3.93545755 1.8122197 3.02036616 0 0 Z "  fill="#58A6FF" transform="translate(285,268)"/>
<path d="M0 0 C0.66 0 1.32 0 2 0 C2.33 30.03 2.66 60.06 3 91 C2.34 91 1.68 91 1 91 C0.67 60.97 0.34 30.94 0 0 Z "  fill="#58A6FF" transform="translate(230,238)"/>
<path d="M0 0 C3.49844386 0.63389235 5.84086876 2.05177694 8.75 4.0625 C9.94882813 4.88427734 9.94882813 4.88427734 11.171875 5.72265625 C12.07679688 6.35494141 12.07679688 6.35494141 13 7 C13.61875 6.484375 14.2375 5.96875 14.875 5.4375 C19.38101042 3.36473521 23.20627283 4.22741873 28 5 C28 5.66 28 6.32 28 7 C27.14535156 7.04898438 26.29070312 7.09796875 25.41015625 7.1484375 C24.30542969 7.22320312 23.20070312 7.29796875 22.0625 7.375 C20.96035156 7.44460937 19.85820312 7.51421875 18.72265625 7.5859375 C17.37494141 7.79089844 17.37494141 7.79089844 16 8 C15.67 8.66 15.34 9.32 15 10 C12.69 9.34 10.38 8.68 8 8 C8 7.34 8 6.68 8 6 C7.21625 5.855625 6.4325 5.71125 5.625 5.5625 C3 5 3 5 1 4 C2.21044132 8.60742865 2.21044132 8.60742865 4 13 C0.125 11.125 0.125 11.125 -1 10 C-1.13568319 6.33655389 -1.16461426 3.49384279 0 0 Z "  fill="#58A6FF" transform="translate(149,214)"/>
<path d="M0 0 C0.45890625 0.39832031 0.9178125 0.79664063 1.390625 1.20703125 C2.00421875 1.73683594 2.6178125 2.26664063 3.25 2.8125 C3.85328125 3.33457031 4.4565625 3.85664063 5.078125 4.39453125 C6.97051034 6.06295025 6.97051034 6.06295025 9.21875 7.3125 C11 9 11 9 11.390625 11.91796875 C11.32101563 13.53638672 11.32101563 13.53638672 11.25 15.1875 C11.21390625 16.27417969 11.1778125 17.36085937 11.140625 18.48046875 C11.07101563 19.72763672 11.07101563 19.72763672 11 21 C10.01 21 9.02 21 8 21 C7.67 19.02 7.34 17.04 7 15 C4.55519921 15.18828772 4.55519921 15.18828772 2 16 C0.63979849 17.96758273 0.63979849 17.96758273 0 20 C-0.625 17.6875 -0.625 17.6875 -1 15 C-0.34 14.01 0.32 13.02 1 12 C4.625 11.8125 4.625 11.8125 8 12 C8 11.01 8 10.02 8 9 C6.35 8.67 4.7 8.34 3 8 C3 7.34 3 6.68 3 6 C2.01 5.67 1.02 5.34 0 5 C0 3.35 0 1.7 0 0 Z "  fill="#58A6FF" transform="translate(234,195)"/>
<path d="M0 0 C0.99 0.33 1.98 0.66 3 1 C3.33 1.99 3.66 2.98 4 4 C6.64 4.33 9.28 4.66 12 5 C12 4.01 12 3.02 12 2 C13.65 2 15.3 2 17 2 C17 2.66 17 3.32 17 4 C15.34467377 5.01866229 13.67739862 6.01810813 12 7 C11.67 7.66 11.34 8.32 11 9 C10.34 9 9.68 9 9 9 C9 9.66 9 10.32 9 11 C6.12688767 13.57589381 4.85830415 14 1 14 C1.01160156 13.24074219 1.02320313 12.48148438 1.03515625 11.69921875 C1.04417969 10.70535156 1.05320312 9.71148437 1.0625 8.6875 C1.07990234 7.20830078 1.07990234 7.20830078 1.09765625 5.69921875 C1.12329862 2.90036151 1.12329862 2.90036151 0 0 Z "  fill="#58A6FF" transform="translate(313,170)"/>
<path d="M0 0 C0.66 0.33 1.32 0.66 2 1 C1.67 2.32 1.34 3.64 1 5 C-1.31 5.66 -3.62 6.32 -6 7 C-6.33 9.31 -6.66 11.62 -7 14 C-8.32 13.67 -9.64 13.34 -11 13 C-11.60552093 5.85485307 -11.60552093 5.85485307 -8.875 2 C-5.54170381 -0.31881474 -3.97357645 -0.52981019 0 0 Z "  fill="#58A6FF" transform="translate(165,246)"/>
<path d="M0 0 C0.33 0 0.66 0 1 0 C1 13.53 1 27.06 1 41 C1.66 41.33 2.32 41.66 3 42 C1.68 42 0.36 42 -1 42 C-1.02464638 36.17928378 -1.0428343 30.35859766 -1.05493164 24.5378418 C-1.05997267 22.55606559 -1.06680538 20.57429311 -1.07543945 18.5925293 C-1.08751515 15.75047891 -1.09323045 12.90847753 -1.09765625 10.06640625 C-1.10281754 9.17474258 -1.10797882 8.28307892 -1.11329651 7.36439514 C-1.11349177 5.24259399 -1.0621003 3.1208922 -1 1 C-0.67 0.67 -0.34 0.34 0 0 Z "  fill="#58A6FF" transform="translate(256,295)"/>
<path d="M0 0 C0 0.33 0 0.66 0 1 C-2.97 1.66 -5.94 2.32 -9 3 C-7.10244856 5.34973818 -7.10244856 5.34973818 -3.875 5.125 C-2.451875 5.063125 -2.451875 5.063125 -1 5 C0.35439668 7.70879335 0.06501451 10.00933268 0 13 C-3.465 14.485 -3.465 14.485 -7 16 C-9.09350689 12.5980513 -9.17942163 9.94727588 -9 6 C-11.35785318 6.89335797 -11.35785318 6.89335797 -12.125 10.0625 C-12.41375 11.031875 -12.7025 12.00125 -13 13 C-13.33 13 -13.66 13 -14 13 C-13.81217902 5.0090709 -13.81217902 5.0090709 -10.9375 1.4375 C-6.99750426 -0.49058302 -4.35317058 -0.29513021 0 0 Z M-6 7 C-6.33 8.65 -6.66 10.3 -7 12 C-4.525 12.495 -4.525 12.495 -2 13 C-1.67 11.35 -1.34 9.7 -1 8 C-2.65 7.67 -4.3 7.34 -6 7 Z "  fill="#58A6FF" transform="translate(319,266)"/>
<path d="M0 0 C3.4375 -0.4375 3.4375 -0.4375 7 0 C8.875 1.9375 8.875 1.9375 10 4 C10.33 4.33 10.66 4.66 11 5 C11.5625 7.25 11.5625 7.25 11 10 C8.51472799 12.0067076 5.8236715 13.51883303 3 15 C2.67 14.01 2.34 13.02 2 12 C2.99 11.67 3.98 11.34 5 11 C5 10.34 5 9.68 5 9 C3.824375 8.9071875 3.824375 8.9071875 2.625 8.8125 C0 8 0 8 -1.4375 5.625 C-1.623125 4.75875 -1.80875 3.8925 -2 3 C-1.34 2.01 -0.68 1.02 0 0 Z M1 1 C0.67 2.65 0.34 4.3 0 6 C1.32 6.33 2.64 6.66 4 7 C4.33 5.35 4.66 3.7 5 2 C3.68 1.67 2.36 1.34 1 1 Z "  fill="#58A6FF" transform="translate(168,224)"/>
<path d="M0 0 C0.66 0.33 1.32 0.66 2 1 C3.20190901 4.60572704 3.32670315 7.2102435 3 11 C1.20437595 13.75329021 -0.05254922 15.52627461 -3 17 C-6.4375 17.25 -6.4375 17.25 -10 17 C-10.99 16.01 -11.98 15.02 -13 14 C-10.03 14.33 -7.06 14.66 -4 15 C-3.67 14.01 -3.34 13.02 -3 12 C-4.65 12 -6.3 12 -8 12 C-8.66 10.68 -9.32 9.36 -10 8 C-8.35 8.33 -6.7 8.66 -5 9 C-5 7.35 -5 5.7 -5 4 C-4.34 4.33 -3.68 4.66 -3 5 C-3 6.98 -3 8.96 -3 11 C-2.01 11 -1.02 11 0 11 C0 7.37 0 3.74 0 0 Z "  fill="#58A6FF" transform="translate(245,205)"/>
<path d="M0 0 C0.66 0 1.32 0 2 0 C2 0.66 2 1.32 2 2 C4.97 2.495 4.97 2.495 8 3 C8.625 5.375 8.625 5.375 9 8 C7 10 7 10 4.8359375 10.1953125 C3.61777344 10.16050781 3.61777344 10.16050781 2.375 10.125 C1.55773437 10.10695312 0.74046875 10.08890625 -0.1015625 10.0703125 C-0.72804687 10.04710937 -1.35453125 10.02390625 -2 10 C-1.34 11.65 -0.68 13.3 0 15 C-3.16115776 13.63016497 -3.9927092 13.0109362 -6 10 C-6.25760279 7.30547479 -6.08900053 4.71451625 -6 2 C-5.34 2 -4.68 2 -4 2 C-3.67 2.99 -3.34 3.98 -3 5 C-1.68 4.34 -0.36 3.68 1 3 C0.67 2.01 0.34 1.02 0 0 Z M2 3 C1.67 4.65 1.34 6.3 1 8 C3.475 8.495 3.475 8.495 6 9 C6.33 7.35 6.66 5.7 7 4 C5.35 3.67 3.7 3.34 2 3 Z "  fill="#58A6FF" transform="translate(209,149)"/>
<path d="M0 0 C1 2 1 2 0.375 4.5625 C-1 7 -1 7 -3.5 7.8125 C-6 8 -6 8 -8 8 C-8 9.65 -8 11.3 -8 13 C-8.66 13 -9.32 13 -10 13 C-10 13.66 -10 14.32 -10 15 C-10.66 15 -11.32 15 -12 15 C-13.5078125 13.25 -13.5078125 13.25 -15.125 11 C-15.66382813 10.2575 -16.20265625 9.515 -16.7578125 8.75 C-17.16773438 8.1725 -17.57765625 7.595 -18 7 C-17.360625 6.87625 -16.72125 6.7525 -16.0625 6.625 C-15.381875 6.41875 -14.70125 6.2125 -14 6 C-13.67 5.34 -13.34 4.68 -13 4 C-11.68 4.66 -10.36 5.32 -9 6 C-8.67 5.01 -8.34 4.02 -8 3 C-6.68 3.99 -5.36 4.98 -4 6 C-2.68 4.02 -1.36 2.04 0 0 Z "  fill="#58A6FF" transform="translate(338,248)"/>
<path d="M0 0 C0.90027678 11.52854434 -2.79890466 19.91199934 -9.4140625 29.19921875 C-9.93742187 29.79347656 -10.46078125 30.38773437 -11 31 C-11.66 31 -12.32 31 -13 31 C-13.33 33.31 -13.66 35.62 -14 38 C-14.66 36.68 -15.32 35.36 -16 34 C-15.67 34 -15.34 34 -15 34 C-14.67 31.69 -14.34 29.38 -14 27 C-12.68 27 -11.36 27 -10 27 C-10 25.35 -10 23.7 -10 22 C-8.35 21.34 -6.7 20.68 -5 20 C-5 18.68 -5 17.36 -5 16 C-4.34 16 -3.68 16 -3 16 C-2.34 11.71 -1.68 7.42 -1 3 C-1.99 3.33 -2.98 3.66 -4 4 C-3.67 3.01 -3.34 2.02 -3 1 C-1 0 -1 0 0 0 Z "  fill="#58A6FF" transform="translate(349,236)"/>
<path d="M0 0 C1.01492872 3.5149608 0.83453136 5.29007469 -0.4375 8.75 C-0.72496094 9.54921875 -1.01242188 10.3484375 -1.30859375 11.171875 C-1.53675781 11.77515625 -1.76492187 12.3784375 -2 13 C-2.66 13 -3.32 13 -4 13 C-4 17.95 -4 22.9 -4 28 C-9 23 -9 23 -9.06640625 20.2421875 C-7.67894259 16.02389141 -5.89162374 12.10749743 -3.9375 8.125 C-3.37192383 6.949375 -3.37192383 6.949375 -2.79492188 5.75 C-1.87006766 3.83004947 -0.93596022 1.914561 0 0 Z "  fill="#58A6FF" transform="translate(178,147)"/>
<path d="M0 0 C4.455 0.99 4.455 0.99 9 2 C8.01 2.99 7.02 3.98 6 5 C5.7496423 8.62535976 5.7496423 8.62535976 6 12 C5.28714844 11.79503906 4.57429688 11.59007812 3.83984375 11.37890625 C-1.43976749 9.89379353 -6.54711116 8.60587654 -12 8 C-12 7.67 -12 7.34 -12 7 C-7.48382401 6.92345464 -3.40914783 6.89771304 1 8 C0.01 7.01 -0.98 6.02 -2 5 C-1.34 3.35 -0.68 1.7 0 0 Z "  fill="#58A6FF" transform="translate(296,211)"/>
<path d="M0 0 C0.99 0.33 1.98 0.66 3 1 C4.1875 4.0625 4.1875 4.0625 5 7 C4.401875 7.45375 3.80375 7.9075 3.1875 8.375 C-1.53950503 14.04740604 -2.33661179 21.83540728 -3 29 C-1.68 29.66 -0.36 30.32 1 31 C0.67 31.66 0.34 32.32 0 33 C-3 32 -3 32 -4.2265625 29.89453125 C-6.56297108 21.15069913 -3.16712531 11.61578073 1 4 C0.67963298 1.8352267 0.67963298 1.8352267 0 0 Z "  fill="#58A6FF" transform="translate(157,230)"/>
<path d="M0 0 C1.43088528 2.86177057 0.59991697 4.93375773 0 8 C-0.66 8 -1.32 8 -2 8 C-2.85974801 10.29294488 -2.85974801 10.29294488 -3 13 C-2.34 13.66 -1.68 14.32 -1 15 C-0.34 15.66 0.32 16.32 1 17 C0.75 19.75 0.75 19.75 0 22 C-1.65 21.67 -3.3 21.34 -5 21 C-5.66 19.02 -6.32 17.04 -7 15 C-7.99 15 -8.98 15 -10 15 C-8.484375 11.2109375 -8.484375 11.2109375 -6.0625 10.15625 C-3.36556678 8.64433289 -2.88433099 7.21082747 -1.75 4.375 C-1.41484375 3.55773437 -1.0796875 2.74046875 -0.734375 1.8984375 C-0.49203125 1.27195313 -0.2496875 0.64546875 0 0 Z M-3 17 C-3 18.32 -3 19.64 -3 21 C-2.01 20.67 -1.02 20.34 0 20 C-0.33 19.01 -0.66 18.02 -1 17 C-1.66 17 -2.32 17 -3 17 Z "  fill="#58A6FF" transform="translate(314,175)"/>
<path d="M0 0 C0.53625 0.37125 1.0725 0.7425 1.625 1.125 C1.11385865 3.1695654 0.60180276 5.21263403 0.0625 7.25 C-0.45074321 9.12871953 -0.45074321 9.12871953 -0.375 11.125 C-1.035 11.125 -1.695 11.125 -2.375 11.125 C-2.705 10.465 -3.035 9.805 -3.375 9.125 C-4.69988113 8.75951555 -6.03518514 8.4312434 -7.375 8.125 C-8.7229743 7.48845658 -10.06096724 6.82894612 -11.375 6.125 C-10.385 5.465 -9.395 4.805 -8.375 4.125 C-8.375 3.135 -8.375 2.145 -8.375 1.125 C-2.95961538 -1.09038462 -2.95961538 -1.09038462 0 0 Z "  fill="#58A6FF" transform="translate(338.375,185.875)"/>
<path d="M0 0 C3.36295835 1.44126786 5.62927102 3.20592655 8 6 C8 6.99 8 7.98 8 9 C5.77110504 9.05428973 3.54182529 9.09292338 1.3125 9.125 C-0.54955078 9.15980469 -0.54955078 9.15980469 -2.44921875 9.1953125 C-5.87347466 9.00695959 -7.88954892 8.29559285 -11 7 C-13.59614617 6.94476285 -16.10740478 7.12366298 -18.6953125 7.3203125 C-21 7 -21 7 -22.8046875 4.9921875 C-23.19914063 4.33476562 -23.59359375 3.67734375 -24 3 C-23.01 3.33 -22.02 3.66 -21 4 C-18.29116871 4.39229375 -15.592808 4.74756965 -12.875 5.0625 C-12.11324463 5.15192871 -11.35148926 5.24135742 -10.56665039 5.33349609 C-5.34400042 5.91830813 -0.25867967 6.19122472 5 6 C3.35 4.02 1.7 2.04 0 0 Z "  fill="#58A6FF" transform="translate(222,198)"/>
<path d="M0 0 C4.95 0 9.9 0 15 0 C15 16.17 15 32.34 15 49 C14.67 49 14.34 49 14 49 C13.98541748 47.68281982 13.97083496 46.36563965 13.95581055 45.00854492 C13.89789287 40.12740762 13.82065964 35.24673482 13.73754883 30.3659668 C13.70426872 28.25243664 13.67624647 26.13881694 13.65356445 24.02514648 C13.62007528 20.98903194 13.56776236 17.95374025 13.51171875 14.91796875 C13.50532883 13.97100632 13.4989389 13.02404388 13.49235535 12.04838562 C13.47256119 11.16769913 13.45276703 10.28701263 13.43237305 9.37963867 C13.42126999 8.60464523 13.41016693 7.82965179 13.39872742 7.03117371 C12.89642055 4.47235167 12.04249256 3.57860383 10 2 C7.49796352 1.42428504 7.49796352 1.42428504 4.8125 1.3125 C3.91144531 1.24675781 3.01039063 1.18101562 2.08203125 1.11328125 C1.39496094 1.07589844 0.70789063 1.03851563 0 1 C0 0.67 0 0.34 0 0 Z "  fill="#58A6FF" transform="translate(269,169)"/>
<path d="M0 0 C0.33 0 0.66 0 1 0 C1 6.27 1 12.54 1 19 C3.02125 18.401875 5.0425 17.80375 7.125 17.1875 C8.26195312 16.85105469 9.39890625 16.51460938 10.5703125 16.16796875 C13.89932763 15.03428364 16.89703414 13.645798 20 12 C19.67 13.65 19.34 15.3 19 17 C17.02 17 15.04 17 13 17 C13 17.99 13 18.98 13 20 C7.94359054 20.7713167 5.14808788 21.02961758 0 20 C0 13.4 0 6.8 0 0 Z "  fill="#58A6FF" transform="translate(292,281)"/>
<path d="M0 0 C4.95 0 9.9 0 15 0 C15.9584336 2.87530081 16.06656387 4.29049931 15.87890625 7.23046875 C15.83056641 8.03291016 15.78222656 8.83535156 15.73242188 9.66210938 C15.67634766 10.49548828 15.62027344 11.32886719 15.5625 12.1875 C15.51029297 13.03248047 15.45808594 13.87746094 15.40429688 14.74804688 C15.27476311 16.83236299 15.13806823 18.91623182 15 21 C14.34 21 13.68 21 13 21 C13 20.34 13 19.68 13 19 C11.02 19.99 11.02 19.99 9 21 C9 23.97 9 26.94 9 30 C8.34 30 7.68 30 7 30 C7 26.37 7 22.74 7 19 C5.68 18.67 4.36 18.34 3 18 C6.63 18 10.26 18 14 18 C14 12.39 14 6.78 14 1 C9.38 1 4.76 1 0 1 C0 0.67 0 0.34 0 0 Z "  fill="#58A6FF" transform="translate(207,272)"/>
<path d="M0 0 C0.33 0.99 0.66 1.98 1 3 C-0.4375 5.1875 -0.4375 5.1875 -2 7 C0.97 7.495 0.97 7.495 4 8 C2.02 8.99 2.02 8.99 0 10 C0 11.98 0 13.96 0 16 C-3 14 -3 14 -3.6875 11.375 C-3.790625 10.59125 -3.89375 9.8075 -4 9 C-4.66 11.31 -5.32 13.62 -6 16 C-5.34 16.33 -4.68 16.66 -4 17 C-4.99 17 -5.98 17 -7 17 C-8.42662219 14.14675563 -8.31033868 12.16545451 -8 9 C-6.125 6.125 -6.125 6.125 -4 4 C-3.34 4 -2.68 4 -2 4 C-1.34 2.68 -0.68 1.36 0 0 Z "  fill="#58A6FF" transform="translate(207,273)"/>
<path d="M0 0 C3.27152618 0.10986968 6.54190114 0.2404997 9.8125 0.375 C10.74126953 0.4059375 11.67003906 0.436875 12.62695312 0.46875 C13.51962891 0.50742188 14.41230469 0.54609375 15.33203125 0.5859375 C16.15421143 0.6173584 16.9763916 0.6487793 17.82348633 0.68115234 C20 1 20 1 23 3 C23 3.66 23 4.32 23 5 C25.16666667 4.16666667 25.16666667 4.16666667 26 2 C27.98 2.66 29.96 3.32 32 4 C31.67 5.32 31.34 6.64 31 8 C23.21428571 7.10164835 23.21428571 7.10164835 20 5 C19.67 4.34 19.34 3.68 19 3 C16.53783652 2.73863645 14.15650535 2.57852777 11.6875 2.5 C7.33906005 2.35932735 3.87030164 2.13636813 0 0 Z "  fill="#58A6FF" transform="translate(210,213)"/>
</svg>
